<?xml version="1.0" encoding="utf-8"?>
<svg version="1.1" id="Layer_1" xmlns="http://www.w3.org/2000/svg" xmlns:xlink="http://www.w3.org/1999/xlink" x="0px" y="0px"
	 viewBox="0 0 1817.2 1661.9" style="enable-background:new 0 0 1817.2 1661.9;" xml:space="preserve">
<style type="text/css">
	.st0{fill:#D6FFB9;stroke:#D6FFB9;stroke-width:0.1019;}
	.st1{fill:#ADFF77;stroke:#ADFF77;stroke-width:0.1019;}
	.st2{fill:#D0EDFB;stroke:#D0EDFB;stroke-width:0.1019;}
	.st3{fill:#A2DEF8;stroke:#A2DEF8;stroke-width:0.1019;}
	.st4{fill:#F47AAD;stroke:#F47AAD;stroke-width:0.1019;}
	.st5{fill:#1E1C4E;stroke:#1E1C4E;stroke-width:0.1019;}
	.st6{fill:#020226;stroke:#020226;stroke-width:0.1019;}
	.st7{fill:#04032D;stroke:#04032D;stroke-width:0.1019;}
	.st8{fill:#1B1B1B;stroke:#1B1B1B;stroke-width:0.1019;}
	.st9{fill:#C1FF98;stroke:#C1FF98;stroke-width:0.1019;}
	.st10{fill:#9E1F62;stroke:#9E1F62;stroke-width:0.1019;}
	.st11{fill:#8CC63E;stroke:#8CC63E;stroke-width:0.1019;}
	.st12{fill:#7B346E;stroke:#7B346E;stroke-width:0.1019;}
	.st13{fill:#F0428A;stroke:#F0428A;stroke-width:0.1019;}
	.st14{fill:#7D3370;stroke:#7D3370;stroke-width:0.1019;}
	.st15{fill:#FFFFFF;stroke:#FFFFFF;stroke-width:0.1019;}
	.st16{fill:#262261;stroke:#262261;stroke-width:0.1019;}
	.st17{fill:#7E8081;stroke:#7E8081;stroke-width:0.1019;}
	.st18{fill:#B88CC5;stroke:#B88CC5;stroke-width:0.1019;}
	.st19{fill:#0F75BD;stroke:#0F75BD;stroke-width:0.1019;}
	.st20{fill:#7F3174;stroke:#7F3174;stroke-width:0.1019;}
	.st21{fill:#2E6BA9;stroke:#2E6BA9;stroke-width:0.1019;}
	.st22{fill:#52A16B;stroke:#52A16B;stroke-width:0.1019;}
	.st23{fill:#803373;stroke:#803373;stroke-width:0.1019;}
	.st24{fill:#3AB54A;stroke:#3AB54A;stroke-width:0.1019;}
	.st25{fill:#B88BC4;stroke:#B88BC4;stroke-width:0.1019;}
	.st26{fill:#25AAE2;stroke:#25AAE2;stroke-width:0.1019;}
	.st27{fill:#0E2834;stroke:#0E2834;stroke-width:0.1019;}
	.st28{fill:#7D3272;stroke:#7D3272;stroke-width:0.1019;}
	.st29{fill:#853272;stroke:#853272;stroke-width:0.1019;}
	.st30{fill:#26AAE2;stroke:#26AAE2;stroke-width:0.1019;}
	.st31{fill:#7E3270;stroke:#7E3270;stroke-width:0.1019;}
	.st32{fill:#813273;stroke:#813273;stroke-width:0.1019;}
	.st33{fill:#F6D995;stroke:#F6D995;stroke-width:0.1019;}
	.st34{fill:#08282B;stroke:#08282B;stroke-width:0.1019;}
	.st35{fill:#BF1E2D;stroke:#BF1E2D;stroke-width:0.1019;}
	.st36{fill:#7C8F54;stroke:#7C8F54;stroke-width:0.1019;}
	.st37{fill:#94314C;stroke:#94314C;stroke-width:0.1019;}
	.st38{fill:#283890;stroke:#283890;stroke-width:0.1019;}
	.st39{fill:#459EB2;stroke:#459EB2;stroke-width:0.1019;}
	.st40{fill:#1493A4;stroke:#1493A4;stroke-width:0.1019;}
	.st41{fill:#72CEDD;stroke:#72CEDD;stroke-width:0.1019;}
	.st42{fill:#4D9FAF;stroke:#4D9FAF;stroke-width:0.1019;}
	.st43{fill:#152168;stroke:#152168;stroke-width:0.1019;}
	.st44{fill:#41A3E2;stroke:#41A3E2;stroke-width:0.1019;}
	.st45{fill:#D91B5B;stroke:#D91B5B;stroke-width:0.1019;}
	.st46{fill:#C02A49;stroke:#C02A49;stroke-width:0.1019;}
	.st47{fill:#BA2A46;stroke:#BA2A46;stroke-width:0.1019;}
	.st48{fill:#F6C008;stroke:#F6C008;stroke-width:0.1019;}
	.st49{fill:#933828;stroke:#933828;stroke-width:0.1019;}
	.st50{fill:#BC2849;stroke:#BC2849;stroke-width:0.1019;}
	.st51{fill:#1CC4F3;stroke:#1CC4F3;stroke-width:0.1019;}
	.st52{fill:#7AEED8;stroke:#7AEED8;stroke-width:0.1019;}
	.st53{fill:#2B3790;stroke:#2B3790;stroke-width:0.1019;}
	.st54{fill:#ED207B;stroke:#ED207B;stroke-width:0.1019;}
	.st55{fill:#F4D5B8;stroke:#F4D5B8;stroke-width:0.1019;}
	.st56{fill:#BF1F2D;stroke:#BF1F2D;stroke-width:0.1019;}
	.st57{fill:#C93786;stroke:#C93786;stroke-width:0.1019;}
	.st58{fill:#F5ED30;stroke:#F5ED30;stroke-width:0.1019;}
	.st59{fill:#779856;stroke:#779856;stroke-width:0.1019;}
	.st60{fill:#A4280D;stroke:#A4280D;stroke-width:0.1019;}
	.st61{fill:#3F9FDF;stroke:#3F9FDF;stroke-width:0.1019;}
	.st62{fill:#262161;stroke:#262161;stroke-width:0.1019;}
	.st63{fill:#652D90;stroke:#652D90;stroke-width:0.1019;}
	.st64{fill:#923528;stroke:#923528;stroke-width:0.1019;}
	.st65{fill:#8FCAEB;stroke:#8FCAEB;stroke-width:0.1019;}
	.st66{fill:#4D9FD4;stroke:#4D9FD4;stroke-width:0.1019;}
	.st67{fill:#0D2F66;stroke:#0D2F66;stroke-width:0.1019;}
	.st68{fill:#F7941D;stroke:#F7941D;stroke-width:0.1019;}
	.st69{fill:#64A82A;stroke:#64A82A;stroke-width:0.1019;}
	.st70{fill:#C7CA32;stroke:#C7CA32;stroke-width:0.1019;}
	.st71{fill:#0A2F6A;stroke:#0A2F6A;stroke-width:0.1019;}
	.st72{fill:#066AA7;stroke:#066AA7;stroke-width:0.1019;}
	.st73{fill:#2F6FB3;stroke:#2F6FB3;stroke-width:0.1019;}
	.st74{fill:#0E2836;stroke:#0E2836;stroke-width:0.1019;}
	.st75{fill:#923726;stroke:#923726;stroke-width:0.1019;}
	.st76{fill:#BA3A87;stroke:#BA3A87;stroke-width:0.1019;}
	.st77{fill:#262162;stroke:#262162;stroke-width:0.1019;}
	.st78{fill:#779355;stroke:#779355;stroke-width:0.1019;}
	.st79{fill:#C8358E;stroke:#C8358E;stroke-width:0.1019;}
	.st80{fill:#B53582;stroke:#B53582;stroke-width:0.1019;}
	.st81{fill:#FFE84C;stroke:#FFE84C;stroke-width:0.1019;}
	.st82{fill:#E6E36E;stroke:#E6E36E;stroke-width:0.1019;}
	.st83{fill:#1C1A1C;stroke:#1C1A1C;stroke-width:0.1019;}
	.st84{fill:#E0A51D;stroke:#E0A51D;stroke-width:0.1019;}
	.st85{fill:#93915F;stroke:#93915F;stroke-width:0.1019;}
	.st86{fill:#263990;stroke:#263990;stroke-width:0.1019;}
	.st87{fill:#41A3E0;stroke:#41A3E0;stroke-width:0.1019;}
	.st88{fill:#221C18;stroke:#221C18;stroke-width:0.1019;}
	.st89{fill:#FAD666;stroke:#FAD666;stroke-width:0.1019;}
	.st90{fill:#BB5955;stroke:#BB5955;stroke-width:0.1019;}
	.st91{fill:#EF455B;stroke:#EF455B;stroke-width:0.1019;}
	.st92{fill:#1E1F19;stroke:#1E1F19;stroke-width:0.1019;}
	.st93{fill:#C8645A;stroke:#C8645A;stroke-width:0.1019;}
	.st94{fill:#DC3D1F;stroke:#DC3D1F;stroke-width:0.1019;}
	.st95{fill:#B11626;stroke:#B11626;stroke-width:0.1019;}
	.st96{fill:#38133C;stroke:#38133C;stroke-width:0.1019;}
	.st97{fill:#F1592A;stroke:#F1592A;stroke-width:0.1019;}
	.st98{fill:#EF3E36;stroke:#EF3E36;stroke-width:0.1019;}
	.st99{fill:#EA3954;stroke:#EA3954;stroke-width:0.1019;}
	.st100{fill:#822458;stroke:#822458;stroke-width:0.1019;}
	.st101{fill:#C54E5C;stroke:#C54E5C;stroke-width:0.1019;}
	.st102{fill:#D7CA9B;stroke:#D7CA9B;stroke-width:0.1019;}
	.st103{fill:#451E42;stroke:#451E42;stroke-width:0.1019;}
	.st104{fill:#C55697;stroke:#C55697;stroke-width:0.1019;}
	.st105{fill:#3D143A;stroke:#3D143A;stroke-width:0.1019;}
	.st106{fill:#3A0A2D;stroke:#3A0A2D;stroke-width:0.1019;}
	.st107{fill:#37153C;stroke:#37153C;stroke-width:0.1019;}
	.st108{fill:#C3505B;stroke:#C3505B;stroke-width:0.1019;}
	.st109{fill:#381126;stroke:#381126;stroke-width:0.1019;}
	.st110{fill:#C8515D;stroke:#C8515D;stroke-width:0.1019;}
	.st111{fill:#4FA467;stroke:#4FA467;stroke-width:0.1019;}
	.st112{fill:#3C1131;stroke:#3C1131;stroke-width:0.1019;}
	.st113{fill:#C2515E;stroke:#C2515E;stroke-width:0.1019;}
	.st114{fill:#14202E;stroke:#14202E;stroke-width:0.1019;}
	.st115{fill:#8ACDF1;stroke:#8ACDF1;stroke-width:0.1019;}
	.st116{fill:#07292E;stroke:#07292E;stroke-width:0.1019;}
	.st117{fill:#C05161;stroke:#C05161;stroke-width:0.1019;}
	.st118{fill:#3D0F30;stroke:#3D0F30;stroke-width:0.1019;}
	.st119{fill:#3C0F34;stroke:#3C0F34;stroke-width:0.1019;}
	.st120{fill:#C04F5F;stroke:#C04F5F;stroke-width:0.1019;}
	.st121{fill:#0D2B33;stroke:#0D2B33;stroke-width:0.1019;}
	.st122{fill:#C5505B;stroke:#C5505B;stroke-width:0.1019;}
	.st123{fill:#8FD3FC;stroke:#8FD3FC;stroke-width:0.1019;}
	.st124{fill:#C04F5B;stroke:#C04F5B;stroke-width:0.1019;}
	.st125{fill:#3B1233;stroke:#3B1233;stroke-width:0.1019;}
	.st126{fill:#C3505A;stroke:#C3505A;stroke-width:0.1019;}
	.st127{fill:#341032;stroke:#341032;stroke-width:0.1019;}
	.st128{fill:#1A3B82;stroke:#1A3B82;stroke-width:0.1019;}
	.st129{fill:#3C1231;stroke:#3C1231;stroke-width:0.1019;}
	.st130{fill:#90C9F7;stroke:#90C9F7;stroke-width:0.1019;}
	.st131{fill:#88C7F0;stroke:#88C7F0;stroke-width:0.1019;}
	.st132{fill:#C44F5C;stroke:#C44F5C;stroke-width:0.1019;}
	.st133{fill:#421032;stroke:#421032;stroke-width:0.1019;}
	.st134{fill:#16242D;stroke:#16242D;stroke-width:0.1019;}
	.st135{fill:#0C2B35;stroke:#0C2B35;stroke-width:0.1019;}
	.st136{fill:#BF5162;stroke:#BF5162;stroke-width:0.1019;}
	.st137{fill:#B7317D;stroke:#B7317D;stroke-width:0.1019;}
	.st138{fill:#415EAF;stroke:#415EAF;stroke-width:0.1019;}
	.st139{fill:#92278F;stroke:#92278F;stroke-width:0.1019;}
	.st140{fill:#12A89D;stroke:#12A89D;stroke-width:0.1019;}
	.st141{fill:#072949;stroke:#072949;stroke-width:0.1019;}
	.st142{fill:#3697A0;stroke:#3697A0;stroke-width:0.1019;}
	.st143{fill:#082D3B;stroke:#082D3B;stroke-width:0.1019;}
	.st144{fill:#8BD158;stroke:#8BD158;stroke-width:0.1019;}
	.st145{fill:#0B9444;stroke:#0B9444;stroke-width:0.1019;}
	.st146{fill:#228358;stroke:#228358;stroke-width:0.1019;}
	.st147{fill:#61BC7E;stroke:#61BC7E;stroke-width:0.1019;}
	.st148{fill:#1C8A74;stroke:#1C8A74;stroke-width:0.1019;}
	.st149{fill:#4F6F74;stroke:#4F6F74;stroke-width:0.1019;}
	.st150{fill:#77C966;stroke:#77C966;stroke-width:0.1019;}
	.st151{fill:#D2A86E;stroke:#D2A86E;stroke-width:0.1019;}
	.st152{fill:#D0A86B;stroke:#D0A86B;stroke-width:0.1019;}
	.st153{fill:#7DCB66;stroke:#7DCB66;stroke-width:0.1019;}
	.st154{fill:#D2AB6A;stroke:#D2AB6A;stroke-width:0.1019;}
	.st155{fill:#CFA46D;stroke:#CFA46D;stroke-width:0.1019;}
	.st156{fill:#D1A76B;stroke:#D1A76B;stroke-width:0.1019;}
	.st157{fill:#F8C37E;stroke:#F8C37E;stroke-width:0.1019;}
</style>
<g>
	<path class="st0" d="M557.5,31.2c40.5-0.4,81,0.1,121.5-0.3c10.7,0.7,21.5-0.5,32.1,0.4c0.1,51.1,0,102.3,0,153.4
		c-28.8,0.4-57.6,0.1-86.4,0.2c-22.4-0.1-44.8,0.2-67.3-0.2c-0.3-1.3-0.4-2.7-0.5-4c0.1-46.7,0-93.4,0-140.1
		C557,37.6,556.3,34.3,557.5,31.2z"/>
	<path class="st1" d="M223,137.9c88.1-0.1,176.2-0.1,264.3,0c0.2,88.2,0.1,176.3,0,264.5c-3.4,0.9-7,0.3-10.4,0.4
		c-82.2,0-164.4,0-246.6,0c-2.5,0-4.9-0.3-7.3-0.7C223.1,314,223,225.9,223,137.9z"/>
	<path class="st2" d="M811.8,256c12.9-0.6,25.9-0.1,38.8-0.3c129.3,0,258.6,0,387.9,0c9.5,0.2,18.9-0.5,28.4,0.2
		c0.2,93.7,0,187.5,0.1,281.2c-0.2,4.2,0.7,8.7-1,12.8c-14.7-12.9-29.4-25.7-44.1-38.5c-1.6-1.4-3.4-2.6-5.2-3.7
		c-8-9.5-15.2-19.5-22.9-29.1c-2.7-3.1-6.1-5.4-9.2-8c-12.6-10.2-24.7-21-37.5-30.9c-31.7-13-63.5-25.6-95.2-38.5
		c-2.2-0.9-4.4-1.7-6.6-2.1c-27.8-5.7-55.6-11.7-83.4-17.4c-11.4-1.8-22.7-4.2-34.1-6c-7.5-1.2-15.1-3.3-22.8-2.7
		c-24.2,1.3-48.5,1.7-72.7,3c-6.8-0.1-13.6,1.1-20.4,0.2C811.8,336.2,811.7,296.1,811.8,256z"/>
	<path class="st3" d="M1266.9,256c98.9,0.1,197.8,0.1,296.7,0c0.6,25.7,0.1,51.4,0.3,77.1c0,121.3,0,242.6,0,363.9
		c-0.1,3.3,0.4,6.7-0.4,10c-59.6,0.1-119.3-0.1-178.9,0.1c-18.7-33.7-37-67.7-55.6-101.5c-4.3-5.1-9.9-8.9-14.8-13.4
		c-16-14.1-32.1-28-48.1-42.1c1.7-4.1,0.8-8.5,1-12.8C1266.8,443.5,1267.1,349.7,1266.9,256z"/>
	<path class="st4" d="M705.9,399c30.1-7.3,60.4-14.3,90.6-21.5c-1.5,2.5-4,4.1-6.1,6.1c-23,20.8-46.2,41.3-69,62.3
		c1.9,11.4,4.9,22.5,7.3,33.8c-10.3,4.8-21.1,8.6-31.7,12.6c-9.8,4-19.7,7.9-29.6,11.7c-1.4,0.3-2.2,1.4-3,2.5l-0.2,0.1
		c-3.1,0.1-6,1.2-9.1,1c-7.9-1.5-16-1.7-23.9-3.3c-8.1,0-15.9-2.4-24-2.6c-4.7-0.3-9.4-1.8-14.1-1.6c-18.8,2.9-37.7,5.9-56.5,8.9
		c-3.1,0.4-6.6,2.5-9.5,0.3c7.9-9.9,13.7-21.4,23.3-29.8c8.2-6.5,17.2-11.8,25.7-17.9c13-8.7,25.6-17.8,38.7-26.2
		C645.1,423.1,675.5,411,705.9,399z"/>
	<path class="st5" d="M936.6,389.4c8.3-2.8,16.8-5.2,25.1-7.8c27.8,5.7,55.6,11.6,83.4,17.4c2.3,0.4,4.5,1.2,6.6,2.1
		c31.7,12.9,63.5,25.5,95.2,38.5c12.8,9.9,25,20.7,37.5,30.9c3.1,2.7,6.5,5,9.2,8c7.7,9.6,15,19.7,22.9,29.1
		c5.3,8.3,12.2,15.5,17.7,23.7c5.9,11.5,10.6,23.5,16.5,35c-26.2-1.9-52.5-4-78.7-5.7c-20.1,1.7-40.2,3.8-60.3,5.9
		c-1.4-4.3,0.2-8.7,1.2-12.9c10.7-1.7,21.6-2,32.1-4.8c-10.7-6.1-21.9-11.2-32.8-17c-7-3.4-13.7-7.2-20.8-10.2
		c-0.4-0.2-1.2-0.6-1.6-0.8c-6.3-3.6-12.8-6.9-19.4-9.8c-6.8-3.8-13.8-7.4-20.9-10.6c-18.6-9.2-37.2-18.5-55.6-28.2
		c-5.6-3-11.8-4.5-17.8-6.4l-0.4-0.2c-5.6-2.9-11.9-4.2-18-6c-10.1-3.2-20.1-7-30.5-9.3c9.8,6.3,20.1,11.8,30.2,17.6
		c3.8,2.4,7.7,4.7,11.7,6.9c-3.4,1.2-6.3,3.3-9.5,5c-5.1-2.3-10-4.9-15.1-7.3l-0.5-0.2c-1.6-0.9-3.1-1.7-4.7-2.6
		c-1-1.5-2.2-2.8-3.9-3.5c-9.2-4.5-18.3-9.3-27.6-13.7c-1.2-0.7-2.7-0.4-4-0.3c-1.4-0.7-2.7-1.4-4.1-2.1c-1.7-0.5-3.4-1.1-5.1-0.7
		c-12.5,2.9-25.2,5.3-37.8,7.7c0.3,0.4,0.9,1.1,1.2,1.4c-0.4,0.1-1.2,0.2-1.6,0.3c-5.1-2-10.4,1.1-15.5,1.9
		c-0.3,0.4-0.9,1.2-1.2,1.7c-0.6,0.2-1.2,0.3-1.8,0.5c-1.8-0.5-3.7-0.9-5.5-0.1c-10,3.3-20.4,5.6-30.4,8.8c-1.5,0.3-2.5,1.5-3.3,2.6
		c-4.6,1.4-9.2,2.8-13.8,4c-4.6-1.6-8.8,1.4-13.2,2.3c-2.6,1.1-6.7,1.1-7.4,4.4c-2.2,0.9-4.4,1.8-6.7,2.6c-1.8-0.2-3.7-0.4-5.4,0.4
		c-13.6,5.4-27.2,10.8-40.8,16c-3.8,1.9-8.5,3-11,6.7c-0.3,0.2-1,0.6-1.4,0.7c-3.8-0.4-6.8,2.1-10,3.7c-6.1,3.2-12.2,6.6-18.4,9.8
		c-1.6,0.6-2.5,2-2.8,3.6c-1.2,0.6-2.4,1.2-3.5,1.8c-3.2,1.5-6.9,2.8-9.3,5.6c-2.6-1.5-3,3.3-1.7,4.7c-0.4,1.1-0.8,2.2-1.2,3.4
		c-5.2-0.1-10.4,0.1-15.5,1.4c-2,1.4-2.4,3.8-2.2,6.1c-10.8,38.8-21.8,77.5-32.7,116.2c-1.1,3.9-2.5,7.7-2.5,11.8
		c0.1,17.3,0.5,34.6,0.7,51.9c3.2,0.7,6.5,1,9.8,0.7l0.5,0c-0.2,2.4-0.6,4.7-0.9,7.1c-2.1,1.2-4.1,2.4-6.2,3.6l0.1-1.3
		c-4.7,1.8-8.8,4.7-13.1,7.2c-22,12.3-43.5,25.3-65.5,37.6c-6.7,3.5-12.3,8.7-18.4,13.2c-1.8,1.2-3.2,2.9-3.8,5.1
		c-1.6,1.4-3.3,2.8-4.9,4.1c-0.3,0.2-0.9,0.6-1.2,0.9c-3.4,2.6-6.7,5.5-10.2,8c-2.2,0.2-4.3,1.2-6,2.7c-9.3,7.7-19,14.9-28.3,22.5
		c-1.4,1-2.2,2.6-2.8,4.2c-0.6,0.4-1.1,0.9-1.6,1.4c-2.3-1.2-4.8,0.7-4.2,3.3c-0.2,0.1-0.5,0.4-0.7,0.5c-4.1,0.1-6.8,3.5-9.5,6.1
		l-0.2,1.7c-0.1,0.6-0.1,1.1-0.1,1.7l-1.6,0c-1.7,0-3.4-0.2-4.6-1.5c-0.2-0.4-0.6-1.3-0.8-1.7c-12.8-25.3-25.3-50.7-38.1-75.9
		c-1.2-2.1-1.6-4.6-1.7-6.9c-1.2-10.9-2.5-21.8-4.3-32.6c-0.2-5.9-1.7-11.7-1.9-17.6c-0.2-2.5-0.7-5-1.3-7.4
		c12.2-21.6,24.1-43.3,36-65c6.8-11.9,13.1-24.2,20.2-35.9c20.2-24.9,40.3-49.7,60.5-74.6c0.1-7.6,1.8-15,1.5-22.6
		c0-0.3,0.1-0.9,0.2-1.2c3.3-3.7,6.7-7.4,10.9-10c10.5-7.2,20.7-14.7,31.3-21.7c-4,5.3-8.8,9.9-13,15c-3.2,4.1-7.7,7.4-9.2,12.5
		c-1.9,5.3-3.9,10.6-5.9,15.9c-0.4,0.3-1.3,0.8-1.7,1.1c3.6-0.4,7.2-0.9,10.8-1.6c19.9-3.1,39.8-6.4,59.8-9.4
		c23.9,2.8,47.8,6.2,71.7,9.1c1.9,0.4,3.5-0.8,5.1-1.6c6.1-3.5,12.6-6.5,18.7-10.1c15.3-7.7,30.4-15.8,45.3-24.1
		c3.3-1.5,6.4-3.4,9.6-5c26.9-8.7,53.9-17.3,80.8-26c11.7-4.1,24-5.8,36-8.7c11.3-2.2,22.5-5.4,33.8-7c1,0.7,3.8,1.8,4,0
		c-0.5-0.2-1.5-0.6-2-0.8c1.2-0.3,2.4-0.5,3.6-0.5c0.7,1,1.7,1.3,2.9,0.8c-0.2-0.4-0.6-1.1-0.8-1.4l-0.1-0.2
		c2.6-0.5,5.2-1.1,7.8-1.5C909.8,425.7,923.3,407.6,936.6,389.4z"/>
	<path class="st6" d="M886.6,446.1c0.5-0.2,1.6-0.5,2.1-0.6c0.2,0.4,0.6,1.1,0.8,1.4C888.3,447.4,887.4,447.1,886.6,446.1z"/>
	<path class="st7" d="M881,447.3c0.5-0.2,1.5-0.6,2-0.8c0.5,0.2,1.5,0.6,2,0.8C884.8,449.2,882,448,881,447.3z"/>
	<path class="st8" d="M857.2,457.2c12.6-2.4,25.3-4.8,37.8-7.7c1.7-0.4,3.5,0.1,5.1,0.7c-13.9,2.7-27.8,5.8-41.8,8.5
		C858,458.3,857.5,457.5,857.2,457.2z"/>
	<path class="st9" d="M858.4,458.6c13.9-2.8,27.8-5.8,41.8-8.5c1.3,0.7,2.7,1.4,4.1,2.1c11.8,5.9,23.6,11.9,35.5,17.6
		c1.5,0.9,3.1,1.7,4.7,2.6c-5.4-1.1-9.9-4.3-14.9-6.5c-10-4.8-19.8-10.1-30-14.8c-13.7,3.1-27.5,5.7-41.3,8.6
		c-20.8,3.6-40.7,10.7-61,16.1c-10.9,3.4-22,5.8-32.6,10.1c-6.5,2.4-12.9,5.3-19.4,7.6c-4.1,1.5-8.3,2.8-12,5.1
		c-0.2-0.3-0.7-1-0.9-1.3c8.6-3,17.1-6.5,25.6-9.8c2.3-0.8,4.5-1.7,6.7-2.6c6.6-2.9,13.7-4.6,20.6-6.7c4.7-1.2,9.2-2.6,13.8-4
		c13.1-3.7,26.2-7.4,39.2-11.3c0.6-0.2,1.2-0.3,1.8-0.5c5.5-1.4,11.1-2.3,16.7-3.6C857.1,458.9,858,458.7,858.4,458.6z"/>
	<path class="st10" d="M927.5,450.4c10.4,2.3,20.4,6.1,30.5,9.3c0.9,1.1,2,2.3,3.6,2.5c4.8,1.1,9.4,3.3,14.4,3.5l0.4,0.2
		c6,2.8,12.8,3.9,18.6,7.2c15.8,8.8,32.1,16.4,48.1,24.7c2.1,1.1,4.3,1.9,6.6,2.7c7.1,3.2,14.1,6.8,20.9,10.6
		c1.7,3.1,5.2,4.1,8.2,5.6c3.6,1.7,7,4.4,11.3,4.2c0.4,0.2,1.2,0.6,1.6,0.8c2.2,3.3,6.2,4.4,9.5,6.2c8.9,4.6,18,8.8,26.7,13.7
		c4.1,2.2,8.6,3.7,12.1,6.8c-4.2,2.1-9,1.4-13.5,2.1c-12.5,2.1-25.2,3.2-37.8,5.1c-4.5-1.4-7.6-5.4-11.5-8c-4.3-2.8-7.7-7.2-13-8.2
		c-0.2-0.1-0.5-0.4-0.7-0.5c-1.6-3.5-5.2-5.2-8-7.6c-3.5-2.6-6.7-6.2-11.2-6.9c-0.9-0.6-1.7-1.2-2.5-1.8c-1.2-2.1-2.7-4-4.7-5.3
		c-3.2-2.2-6-5.3-10-5.9c-1.2-0.9-2.5-1.8-3.6-2.7c-1.5-3.6-5.1-5.4-8-7.7c-1.6-1.3-3.6-2.2-5.6-2.6c-0.9-0.6-1.8-1.2-2.6-1.8
		c-1.7-2.9-4.9-4.3-7.7-5.8c-4.4-2.4-8.5-5.7-13.5-6.4c-5-2.6-9.9-5.3-14.5-8.5c-3.5-4-8.3-7.3-13.7-7.7
		C947.6,462.1,937.2,456.7,927.5,450.4z"/>
	<path class="st11" d="M858.3,459.6c13.8-2.9,27.6-5.5,41.3-8.6c10.1,4.7,19.9,10,30,14.8c4.9,2.2,9.5,5.4,14.9,6.5l0.5,0.2
		c4.8,3.3,10.3,5.3,15.5,7.8c-19.3,11.7-39.1,22.6-58.5,34c-41.2,24-82.6,47.8-123.7,72.2c19.3,38.5,38.1,77.3,57.2,115.9
		c9.3,19.3,19.1,38.3,28.2,57.7c-6.1-3.5-11.5-8.2-17.3-12.3c-37.4-27.4-74.7-55-112.1-82.5c-0.5-53.6,0-107.2-0.3-160.8
		c-0.1-2-0.3-4-0.6-6c3.7-2.4,7.9-3.6,12-5.1c6.5-2.4,12.9-5.2,19.4-7.6c10.5-4.3,21.7-6.7,32.6-10.1
		C817.5,470.3,837.5,463.2,858.3,459.6z"/>
	<path class="st8" d="M904.2,452.2c1.3-0.1,2.7-0.4,4,0.3c9.3,4.4,18.4,9.2,27.6,13.7c1.7,0.7,2.9,2,3.9,3.5
		C927.8,464,916,458.1,904.2,452.2z"/>
	<path class="st8" d="M841.3,460.8c5.1-0.8,10.4-3.9,15.5-1.9c-5.5,1.3-11.2,2.2-16.7,3.6C840.4,462.1,841,461.3,841.3,460.8z"/>
	<path class="st12" d="M958,459.6c6.1,1.8,12.4,3.1,18,6c-5-0.1-9.6-2.4-14.4-3.5C960,461.9,958.9,460.7,958,459.6z"/>
	<path class="st8" d="M832.8,462.9c1.8-0.7,3.7-0.4,5.5,0.1c-13,3.9-26.1,7.6-39.2,11.3c0.8-1.2,1.8-2.4,3.3-2.6
		C812.5,468.5,822.8,466.1,832.8,462.9z"/>
	<path class="st13" d="M976.4,465.8c6,1.9,12.2,3.4,17.8,6.4c18.4,9.7,36.9,19,55.6,28.2c-2.2-0.7-4.5-1.5-6.6-2.7
		c-16-8.3-32.4-15.9-48.1-24.7C989.2,469.6,982.4,468.6,976.4,465.8z"/>
	<path class="st14" d="M957.7,467.9c5.4,0.4,10.2,3.7,13.7,7.7c-0.5-0.2-1.5-0.6-2-0.8C965.4,472.7,961.5,470.3,957.7,467.9z"/>
	<path class="st15" d="M944.8,472.5c5,2.4,10,5,15.1,7.3c9.9,5.3,20.6,9.3,29.8,16c18,12.1,36,24.1,54,36.3
		c16,12.9,31.8,26.1,47.8,38.9c-1.4,13.4-2.9,26.7-4,40.1c-0.3,2.1-0.6,4.1-0.7,6.2c-0.9,7.9-1.7,15.8-2.4,23.7
		c-0.7,4.8-1.7,9.5-2.3,14.3c-0.3-0.3-0.9-0.9-1.2-1.2c-2.5,8.4-5.7,16.8-7,25.5c-8,28.7-15.9,57.3-24.3,85.9
		c-45.8,10.2-91.4,21.1-137.3,31c-10.1-7.4-20.2-14.9-30.3-22.3c-5.8-4.1-11.1-8.7-17.3-12.3c-0.4-0.5-1.1-1.4-1.4-1.8
		c-9.1-19.4-18.8-38.4-28.2-57.7c-19.1-38.6-37.9-77.4-57.2-115.9c41.1-24.3,82.5-48.2,123.7-72.2c19.4-11.5,39.2-22.4,58.5-34
		C955.1,477.9,949.6,475.8,944.8,472.5z"/>
	<path class="st16" d="M959.9,479.8c3.1-1.7,6.1-3.7,9.5-5c0.5,0.2,1.5,0.6,2,0.8c4.6,3.2,9.5,5.9,14.5,8.5
		c6.8,4.5,14,8.5,21.2,12.3c0.8,0.6,1.7,1.2,2.6,1.8c4.4,3.7,8.9,7.1,13.6,10.3c1.2,0.9,2.4,1.8,3.6,2.7c4.7,4,9.7,7.7,14.8,11.2
		c0.8,0.6,1.7,1.2,2.5,1.8c6.1,5.3,12.5,10.2,19.3,14.5c0.2,0.1,0.5,0.4,0.7,0.5c5.9,5.2,12.4,9.6,18.5,14.5c2.1,1.4,4.1,3.7,6.9,3
		c7.8-1.1,15.7-2.2,23.5-3.3c-1,4.2-2.6,8.6-1.2,12.9c-0.5,0-1.6,0.2-2.2,0.2c-0.3,5.3-0.5,10.6-1.3,15.8c-0.1-0.6-0.3-1.8-0.4-2.4
		c1.2-4.4,0.8-9.1,0.9-13.6c-4.6,0.9-8.8,2.7-13.2,4c-0.6,0.2-1.9,0.6-2.6,0.8c-0.4,1.2-0.7,2.5-1,3.8c-0.3-1.4-0.5-2.8-0.8-4.2
		c-16-12.9-31.8-26.1-47.8-38.9c-17.9-12.2-36-24.2-54-36.3C980.5,489.2,969.8,485.1,959.9,479.8z"/>
	<path class="st8" d="M772,480.5c4.4-0.9,8.6-3.9,13.2-2.3c-6.9,2.1-14,3.8-20.6,6.7C765.3,481.6,769.5,481.7,772,480.5z"/>
	<path class="st17" d="M539.5,487c3.3-2.9,7.4-4.9,11-7.5c-9.6,8.4-15.5,19.9-23.3,29.8c-0.5,0.9-1,1.9-1.4,2.9
		c-1.6,6-4.8,11.6-5.3,17.9c-3.6,0.6-7.2,1.2-10.8,1.6c0.4-0.3,1.3-0.8,1.7-1.1c2-5.3,4-10.6,5.9-15.9c1.6-5.1,6.1-8.4,9.2-12.5
		C530.6,496.8,535.5,492.2,539.5,487z"/>
	<path class="st18" d="M697,492.3c10.6-4,21.4-7.8,31.7-12.6c0.1,0.5,0.2,1.4,0.2,1.8c-17.5,7-35,13.7-52.5,20.6
		c-4,1.6-7.9,3.3-12.1,4.4c0.8-1,1.7-2.1,3-2.5C677.3,500.2,687.2,496.4,697,492.3z"/>
	<path class="st19" d="M676.5,502.1c17.5-6.9,35-13.6,52.5-20.6c0.7,2.4,1.2,4.9,1.5,7.5c-3.2,1.6-6.3,3.5-9.6,5
		c-5.2,0.3-9.3,4-14,6c-9.3,5.3-19,9.8-28.3,15.1c-1.3,0.6-2.1,1.9-3,2.9c-6.1,3.6-12.5,6.6-18.7,10.1c-1.6,0.8-3.2,2-5.1,1.6
		c-23.9-3-47.8-6.3-71.7-9.1c-19.9,3-39.8,6.3-59.8,9.4c0.6-6.3,3.7-11.9,5.3-17.9c21.8-3.1,43.5-7,65.3-10.1
		c4.9-0.7,9.9,0.5,14.8,0.9c13.2,1.7,26.5,3.2,39.7,4.9c6.2,0.8,13.1,3,18.7-1.2l0.2-0.1C668.5,505.5,672.5,503.7,676.5,502.1z"/>
	<path class="st20" d="M985.9,484.1c5.1,0.7,9.1,4,13.5,6.4c2.8,1.6,6,2.9,7.7,5.8C999.9,492.6,992.8,488.6,985.9,484.1z"/>
	<path class="st8" d="M752.5,487.9c1.7-0.8,3.6-0.6,5.4-0.4c-8.5,3.4-17,6.8-25.6,9.8c-10.7,4-21.6,7.8-31.6,13.3
		c2.5-3.8,7.1-4.9,11-6.7C725.3,498.7,738.9,493.3,752.5,487.9z"/>
	<path class="st21" d="M706.9,500c4.7-2,8.7-5.7,14-6c-14.9,8.3-30,16.4-45.3,24.1c0.9-1.1,1.7-2.3,3-2.9
		C687.8,509.8,697.5,505.3,706.9,500z"/>
	<path class="st22" d="M700.7,510.7c10-5.6,20.9-9.4,31.6-13.3c0.2,0.3,0.7,1,0.9,1.3c-7.5,2.8-15,5.6-22.4,8.6
		c-7.9,4-15.6,8.3-23.3,12.6c-1.5,1-3.4,1-5.1,1c5.5-3.4,11.4-6,16.9-9.4C699.7,511.2,700.3,510.8,700.7,510.7z"/>
	<path class="st23" d="M1009.8,498.2c2,0.4,4,1.3,5.6,2.6c2.9,2.3,6.5,4.1,8,7.7C1018.7,505.3,1014.1,501.9,1009.8,498.2z"/>
	<path class="st24" d="M710.9,507.2c7.4-2.9,14.9-5.7,22.4-8.6c0.2,2,0.5,4,0.6,6c0.2,53.6-0.2,107.2,0.3,160.8
		c37.3,27.6,74.7,55.1,112.1,82.5c5.8,4.1,11.1,8.8,17.3,12.3c0.4,0.5,1.1,1.4,1.4,1.8c4.2,9.7,9,19.1,13.8,28.6
		c1.5,3.4,3.6,6.6,4.2,10.3c0.1-0.5,0.3-0.9,0.4-1.3c1.7,4.3,3.4,8.8,6.9,12c0.9,3.9,1.7,7.9,3.9,11.3c4.7,9.3,9,18.8,13.9,28
		l1.2-0.2c-2.1,0.8-4.1,1.6-6.2,2.2c-8.6,2.2-16.8,6.1-25.2,9c-15,5.6-29.8,11.4-44.8,16.9c-3.1,1-6,3-9.3,2.7
		c-3.7-3.6-8-6.4-11.9-9.7c-2.2-1.8-4.7-3.2-7.3-4.3c-1.7-1.1-3.2-2.2-4.8-3.4c-1.9-3.8-5.6-5.7-8.8-8.2
		c-8.9-6.7-17.6-13.7-26.7-20.1c-25.6-17.5-51.2-35-76.6-52.6c-1.3-0.8-2.7-1.3-4.2-1.4c-0.2,0-0.7-0.1-0.9-0.1
		c-0.2-0.3-0.7-0.9-1-1.3c-2-3.4-5.7-5.1-8.8-7.3c-9.4-6.6-19.1-12.8-28.4-19.5c-3.7-2.3-7-5.8-11.5-6.2c-0.2-0.2-0.7-0.5-0.9-0.6
		c-0.5-2.3-2.6-3.4-4.3-4.6c-5-3.5-10.1-6.7-15.1-10.1c0.8-11.4,3.8-22.5,5.3-33.8c4.9-28.2,9.4-56.5,14.2-84.7
		c1.2-5.8,1.5-11.8,3.5-17.4c4-11.5,8.3-23,12.2-34.6c1.6-4.9,3.9-9.7,4.4-14.9c0.1-0.6,0.4-1.7,0.5-2.3c0.3-1.2,0.7-2.3,1.2-3.4
		c0.7-1.5,1.3-3.1,1.7-4.7c2.4-2.8,6-4.1,9.3-5.6c5.8-2.3,11.4-5.1,16.5-8.7c0.3-0.2,1-0.6,1.4-0.8c1.7,0,3.6,0,5.1-1
		C695.3,515.4,703,511.2,710.9,507.2 M887.6,810.4c-1,1.5,0.5,3.6,2,4.2C890.3,813.1,889,810.8,887.6,810.4z"/>
	<path class="st25" d="M536.6,509c18.8-3,37.7-6,56.5-8.9c4.8-0.2,9.4,1.3,14.1,1.6c8.1,0.2,15.9,2.6,24,2.6
		c7.9,1.6,16,1.8,23.9,3.3c3,0.1,6-1,9.1-1c-5.6,4.1-12.5,2-18.7,1.2c-13.2-1.6-26.5-3.1-39.7-4.9c-4.9-0.4-9.8-1.6-14.8-0.9
		c-21.8,3.2-43.5,7.1-65.3,10.1c0.4-1,0.9-1.9,1.4-2.9C530,511.5,533.5,509.4,536.6,509z"/>
	<path class="st26" d="M1216.7,507.7c1.8,1.1,3.6,2.2,5.2,3.7c14.7,12.9,29.4,25.7,44.1,38.5c16,14.1,32.1,28,48.1,42.1
		c4.9,4.6,10.5,8.3,14.8,13.4c18.6,33.8,36.9,67.8,55.6,101.5c6.1,12.6,13.4,24.6,19.8,37c1,12.9,0.9,26,0.6,39
		c-0.4-0.6-1.3-1.7-1.7-2.2c1.3-2.2-0.5-5-3-4.1c-4.3-5.8-8.6-11.5-12.8-17.4c-4.2-10.1-8.3-20.4-12.3-30.6
		c-2.8-8.1-8.5-14.6-12.8-21.9c-17.1-26.3-34.2-52.7-51.4-79c-4.4-6-10.2-10.8-15.2-16.2c-9.5-9.6-18.8-19.5-28.4-28.9
		c-5.4-5.4-10.9-10.9-16.1-16.5c-5.9-11.4-10.6-23.5-16.5-35C1228.9,523.3,1222,516.1,1216.7,507.7z"/>
	<path class="st27" d="M689.4,515.1c3.2-1.6,6.2-4.2,10-3.7c-5.5,3.4-11.4,5.9-16.9,9.4c-0.3,0.2-1,0.6-1.4,0.8
		c-4.3,2.4-8.6,4.7-13,6.9c0.3-1.7,1.2-3,2.8-3.6C677.1,521.7,683.2,518.4,689.4,515.1z"/>
	<path class="st28" d="M1027,511.3c4,0.6,6.8,3.7,10,5.9c2,1.3,3.5,3.3,4.7,5.3C1036.7,518.9,1031.7,515.3,1027,511.3z"/>
	<path class="st29" d="M1070.6,511c6.6,2.9,13.1,6.2,19.4,9.8c-4.2,0.2-7.6-2.5-11.3-4.2C1075.8,515.1,1072.3,514.1,1070.6,511z"/>
	<path class="st30" d="M493.5,522.3c1.1-1,2-2.4,3.6-2.4c0.2,7.6-1.5,15-1.5,22.6c-20.2,24.8-40.4,49.7-60.5,74.6
		c-7.1,11.7-13.3,24-20.2,35.9c-6.9-0.8-13.8-1.2-20.7-1.5c4.7-9.9,10.6-19.1,15.2-29c0.1,0.3,0.2,0.7,0.3,1.1
		c2.3-4.7,5.9-8.5,8.8-12.8c5.9-8.2,12-16.2,17.8-24.5c1.7,2.1,3.4-1.2,2.1-2.6c0.3-0.4,0.9-1.3,1.2-1.8c1.7,2.1,3.3-1.2,2-2.7
		c4.4-5.8,8.6-11.8,13.1-17.6c9.3-9.7,19-19,28.3-28.7C486.4,529.5,490,525.9,493.5,522.3z"/>
	<path class="st2" d="M668.1,528.5c4.4-2.2,8.7-4.5,13-6.9c-5.1,3.6-10.7,6.5-16.5,8.7C665.7,529.7,666.9,529.1,668.1,528.5z"/>
	<path class="st31" d="M1091.6,521.6c7.1,3,13.8,6.9,20.8,10.2c10.9,5.8,22.1,10.9,32.8,17c-10.5,2.7-21.4,3-32.1,4.8
		c-7.8,1.1-15.7,2.2-23.5,3.3c-2.8,0.6-4.8-1.6-6.9-3c-6.1-4.9-12.7-9.3-18.5-14.5c5.2,1,8.7,5.4,13,8.2c3.9,2.5,7,6.6,11.5,8
		c12.5-1.9,25.2-3.1,37.8-5.1c4.5-0.7,9.3,0.1,13.5-2.1c-3.6-3.1-8.1-4.6-12.1-6.8c-8.7-4.9-17.8-9.1-26.7-13.7
		C1097.8,526,1093.9,524.9,1091.6,521.6z"/>
	<path class="st32" d="M1044.3,524.3c4.6,0.7,7.7,4.3,11.2,6.9c2.8,2.4,6.4,4.1,8,7.6C1056.8,534.4,1050.4,529.5,1044.3,524.3z"/>
	<path class="st33" d="M33.9,532.3c148,0.2,296,0,444,0.1c1.7,0,3.4-0.1,5,0.7c-9.3,9.7-19,19-28.3,28.7
		c-4.5,5.7-8.6,11.8-13.1,17.6c-0.8,0.8-1.5,1.7-2,2.7c-0.3,0.4-0.9,1.3-1.2,1.8c-0.8,0.8-1.5,1.7-2.1,2.6
		c-5.8,8.2-11.9,16.3-17.8,24.5c-3,4.2-6.6,8.1-8.8,12.8c-0.1-0.4-0.2-0.7-0.3-1.1c-4.6,9.9-10.5,19.1-15.2,29
		c-1.4,2.2-2.7,4.4-3.8,6.7c-1.6,3-3.2,5.9-4.7,8.9c-0.1,0.2-0.4,0.7-0.5,1c-1.6,2.7-3,5.5-4.5,8.2c-4,7.3-8.2,14.6-11.8,22.1
		c-1.8,5.6-3.4,11.2-5.1,16.9c-1.6,5-2.9,10.2-4.6,15.2c-3.4,3-3.4,7.8-5.1,11.8c-1.8,6.9-4.3,13.6-5.9,20.6
		c-3.1,11.6-10.5,21.9-11.6,34.1c-4.5,22.9-9,45.8-13.4,68.7c-0.9,7.1-0.3,14.3-0.2,21.4c0.1,16.3,0.4,32.6,1.6,48.8
		c0.2,16.7,1,33.4,1.4,50.1c0.4,3-0.7,6.9,2.1,9.1c0.3,9.1,0.7,18.3,1,27.4c-0.4-0.3-1.3-0.8-1.7-1.1c-57.7,0.3-115.4,0.1-173.1,0.2
		c-40.1-0.1-80.1,0.1-120.2-0.1c-0.2-82.8,0-165.6-0.1-248.4C33.9,692.7,33.8,612.5,33.9,532.3z"/>
	<path class="st34" d="M653.6,540.6c-1.3-1.4-0.9-6.2,1.7-4.7C654.9,537.5,654.3,539.1,653.6,540.6z"/>
	<path class="st35" d="M637,545.4c5.1-1.3,10.3-1.5,15.5-1.4c-0.1,0.6-0.4,1.7-0.5,2.3c-1,1.5-1.9,3.1-2.5,4.9
		c-5.4,15.8-11.3,31.5-16.6,47.3c-4.6,27-9,54.1-13.6,81.1c-0.4,3.2-0.7,6.3-1.8,9.4c-2.9,8.1-3.1,16.8-5.2,25
		c-0.7,3.1-0.4,6.3-0.3,9.5c-0.6,2.9-1.1,5.8-1.3,8.7l-0.5,0c-2.1-2-5.1-1.7-7.7-2c-1.8-15.8-0.2-31.7-1.2-47.6
		c-0.6-6.7,2-13,3.6-19.4c9.6-33.6,19-67.2,28.5-100.8c1.1-4.9,3-9.5,3.7-14.5c-1.3,0.8-1.9,2.3-2.2,3.8
		C634.6,549.2,634.9,546.9,637,545.4z"/>
	<path class="st36" d="M649.4,551.2c0.5-1.8,1.5-3.3,2.5-4.9c-0.4,5.2-2.8,10-4.4,14.9c-3.9,11.6-8.2,23-12.2,34.6
		c-2,5.6-2.2,11.6-3.5,17.4c-4.8,28.2-9.3,56.5-14.2,84.7c-1.5,11.3-4.5,22.4-5.3,33.8c5,3.4,10.1,6.7,15.1,10.1
		c1.7,1.2,3.9,2.3,4.3,4.6c-7.2-4-13.5-9.3-20.5-13.5c-0.5,2.1-1,4.2-1.6,6.2c0.3-2.4,0.6-4.7,0.9-7.1c0.2-2.9,0.8-5.8,1.3-8.7
		c2-11.5,4.5-22.9,5.5-34.5c1.1-3,1.4-6.2,1.8-9.4c4.7-27,9-54.1,13.6-81.1C638.2,582.6,644,567,649.4,551.2z"/>
	<path class="st37" d="M634.7,551.5c0.3-1.5,0.9-2.9,2.2-3.8c-0.7,5-2.5,9.6-3.7,14.5c-9.4,33.6-18.9,67.2-28.5,100.8
		c-1.6,6.3-4.2,12.7-3.6,19.4c1,15.8-0.7,31.8,1.2,47.6c2.6,0.3,5.6,0,7.7,2c-3.3,0.3-6.6,0-9.8-0.7c-0.2-17.3-0.6-34.6-0.7-51.9
		c-0.1-4.1,1.4-7.9,2.5-11.8C612.9,629,623.9,590.3,634.7,551.5z"/>
	<path class="st15" d="M1112,566.5c20.1-2.1,40.2-4.1,60.3-5.9c26.2,1.7,52.5,3.8,78.7,5.7c5.2,5.6,10.7,11.1,16.1,16.5
		c-0.1,84.6-0.1,169.1,0,253.7c-27.6,0-55.2,0.3-82.8-0.1c-32.2-18.7-64.1-37.9-96.3-56.8c4.2-43,9.2-85.9,13.4-128.9
		c2.4-22.8,4.8-45.5,7.2-68.3c0.7-5.2,1-10.5,1.3-15.8C1110.3,566.7,1111.4,566.6,1112,566.5z"/>
	<path class="st26" d="M1095.8,570.6c4.4-1.4,8.7-3.2,13.2-4c-0.1,4.5,0.2,9.1-0.9,13.6c-0.9,5.8-1.6,11.5-2.5,17.3
		c-0.2,9.7-2.1,19.2-2.6,28.9c-0.6,8.1-3,16.3-1.7,24.4c-4.2,43-9.2,85.9-13.4,128.9c32.1,18.9,64,38.1,96.3,56.8
		c27.6,0.4,55.2,0.1,82.8,0.1v0.2l0,1.2c0.1,48.3-0.1,96.7,0.1,145c-9.4,1.8-18.8,3.9-28.3,5.6c-9.1-1.1-17.7,2.7-26.4,4
		c-2.2-1.7-3-5.1-6.1-5.7c-24.2-35-48.2-70.1-72.3-105.2c-6.1-9.3-13.7-17.5-20.6-26.2c-15.4-18.6-30.5-37.5-46.1-56l0,0
		c1.8-5.6,2.1-11.6,3.6-17.2c1.8-6.8,2.7-13.8,4.2-20.6c0.6-2.3,0.4-4.7-0.1-7c2.2-12.7,5.1-25.2,7.2-37.8c2.9-2.8,2.4-7,2.7-10.6
		c0.2-7.6,2.2-14.9,2.2-22.5c1.7-13,3-26,4.6-39c0.4-2.8,0.1-5.6-0.5-8.4c1.2-13.5,3.5-27,3.7-40.6
		C1095,587.5,1096,579.1,1095.8,570.6z"/>
	<path class="st38" d="M1091.4,571.1c0.3,1.4,0.5,2.8,0.8,4.2c0.3-1.3,0.6-2.6,1-3.8c0.6-0.2,1.9-0.6,2.6-0.8
		c0.2,8.4-0.8,16.8-1,25.3c-0.3,13.6-2.6,27.1-3.7,40.6c-3.2,26.8-6.1,53.6-9,80.5c-2.1,12.7-5,25.2-7.2,37.8
		c-2.9,12.9-5,25.9-7.8,38.9c-0.4,1.9-0.9,4.1,0.1,5.9l0,0c-0.8,2.3-1.7,4.7-2.5,7.1c-1.1-1.7-3-2-4.8-2.2c-0.2-3,0-6.1,0.4-9
		c0.3-0.6,0.8-1.8,1.1-2.4c0.1-0.1,0.2-0.2,0.3-0.3l0.9-0.8c0.8-6,2.2-11.9,2.7-18c0.8-5.6,2.7-11.2,1.7-16.9l0,0c1-1,1.7-2.2,2-3.5
		c4.7-34.5,10.2-68.8,15.2-103.2c0.6-3,0.8-6.2,0-9.2c0.7-7.9,1.5-15.8,2.4-23.7c0.3,0.2,0.9,0.5,1.2,0.7c0.9-2.3,1-4.9-0.5-6.9
		C1088.5,597.8,1090,584.4,1091.4,571.1z"/>
	<path class="st39" d="M439.5,582c0.6-1,1.2-1.9,2-2.7C442.8,580.7,441.2,584.1,439.5,582z"/>
	<path class="st40" d="M1105.6,597.5c0.9-5.7,1.7-11.5,2.5-17.3c0.1,0.6,0.3,1.8,0.4,2.4c-2.4,22.8-4.8,45.5-7.2,68.3
		c-1.3-8.2,1-16.3,1.7-24.4C1103.5,616.7,1105.4,607.2,1105.6,597.5z"/>
	<path class="st41" d="M1267,582.9c9.7,9.4,18.9,19.3,28.4,28.9c5,5.5,10.9,10.2,15.2,16.2c17.2,26.3,34.3,52.6,51.4,79
		c4.3,7.3,10,13.8,12.8,21.9c4,10.3,8.1,20.5,12.3,30.6c-2.5,5.4,0,10.8,0.9,16.2c-0.1,0.7-0.4,2-0.6,2.7
		c1.3,14.1,0.2,28.3,0.6,42.4c0.3,5.3-0.8,10.8,1.2,15.8l0,0.3l-1.1,0c-40.4-0.2-80.9-0.2-121.3,0v-0.2
		C1266.9,752,1266.9,667.5,1267,582.9z"/>
	<path class="st42" d="M436.3,586.3c0.6-1,1.3-1.8,2.1-2.6C439.6,585.2,437.9,588.5,436.3,586.3z"/>
	<path class="st43" d="M1087.4,611.2c1.5,2,1.4,4.6,0.5,6.9c-0.3-0.2-0.9-0.5-1.2-0.7C1086.8,615.3,1087.1,613.2,1087.4,611.2z"/>
	<path class="st44" d="M1082.1,717c2.8-26.8,5.8-53.7,9-80.5c0.7,2.7,1,5.6,0.5,8.4c-1.6,13-2.8,26.1-4.6,39c0,7.6-2,14.9-2.2,22.5
		C1084.5,710,1085,714.2,1082.1,717z"/>
	<path class="st5" d="M1084.3,641.1c0.8,3,0.6,6.2,0,9.2c-5,34.4-10.5,68.8-15.2,103.2c-0.3,1.4-1,2.5-2,3.5
		c4.7-33.9,10.1-67.8,14.9-101.7C1082.7,650.6,1083.7,645.9,1084.3,641.1z"/>
	<path class="st45" d="M390.3,658.2c1.2-2.3,2.5-4.5,3.8-6.7c6.9,0.3,13.8,0.7,20.7,1.5c-12,21.7-23.8,43.4-36,65
		c-4.7,4.8-9,10.1-13.8,14.8c-3,2.9-5.2,6.7-9,8.8c1-3.7,2-7.4,3-11.1c1.7-5,3-10.1,4.6-15.2c0.1,0.7,0.4,2,0.5,2.7
		c1.8-4,2.9-8.2,4.2-12.4c0.6-2.3,1.7-4.9,0.4-7.2c3.6-7.5,7.8-14.8,11.8-22.1c3.2-1.1,5.3-5,4.5-8.2c0.1-0.2,0.4-0.7,0.5-1
		C388.7,665.7,391.8,661.5,390.3,658.2z"/>
	<path class="st33" d="M1080.9,654.1c0.3,0.3,0.9,0.9,1.2,1.2c-4.8,33.9-10.2,67.8-14.9,101.7l0,0c-1.9,11.9-3.7,23.8-5.3,35.7
		c-0.1,0.1-0.2,0.2-0.3,0.3c-47,17.6-94,35.4-141,53c-3.1,1.1-6.1,2.3-9.1,3.6l-1.5-0.6c43.2-16.2,86.4-32.6,129.7-48.8
		c6.8-2.8,14-4.8,20.6-8.1c1.6-2.9,1.6-6.2,1.9-9.4c0.3-4.5,1.8-8.7,2-13.2c0.1-4.4,1.6-8.6,2-12.9c0.5-6.7,2.6-13.1,2.7-19.8
		c2-7,1.7-14.4,3.6-21.4c1.5-14.3,4.4-28.3,6-42.6c-3,0.9-2.6,4.6-4.3,6.8C1075.3,670.9,1078.4,662.6,1080.9,654.1z"/>
	<path class="st46" d="M390.3,658.2c1.4,3.3-1.7,7.5-4.7,8.9C387.1,664.1,388.7,661.2,390.3,658.2z"/>
	<path class="st47" d="M385.1,668.1c0.8,3.2-1.3,7.2-4.5,8.2C382,673.6,383.5,670.8,385.1,668.1z"/>
	<path class="st48" d="M1074,679.6c1.7-2.1,1.3-5.9,4.3-6.8c-1.5,14.3-4.4,28.3-6,42.6c-1.9,7-1.5,14.4-3.6,21.4
		c-0.1,6.7-2.2,13.2-2.7,19.8c-0.4,4.3-1.9,8.5-2,12.9c-0.2,4.5-1.7,8.7-2,13.2c-0.3,3.2-0.3,6.6-1.9,9.4
		c-6.6,3.2-13.8,5.2-20.6,8.1c-43.2,16.2-86.4,32.6-129.7,48.8c-3.1-2.4-4.1-6.5-6-9.8c-4.2-7.7-6.6-16.4-11.9-23.4
		c0.1,2.5,1.2,4.7,2.3,6.9c-2.2-3.4-3-7.4-3.9-11.3c-3.5-3.2-5.1-7.7-6.9-12c-0.2,0.4-0.3,0.9-0.4,1.3c-0.6-3.7-2.7-6.9-4.2-10.3
		c-4.8-9.4-9.6-18.9-13.8-28.6c6.1,3.5,11.5,8.2,17.3,12.3c10.1,7.4,20.2,14.9,30.3,22.3c45.8-10,91.5-20.9,137.3-31
		C1058,737,1066,708.3,1074,679.6z"/>
	<path class="st49" d="M612.2,713.9c2.1-8.3,2.2-17,5.2-25c-1,11.6-3.5,23-5.5,34.5C611.8,720.2,611.5,717,612.2,713.9z"/>
	<path class="st50" d="M368.8,698.4c1.2,2.3,0.2,4.9-0.4,7.2c-1.3,4.2-2.4,8.4-4.2,12.4c-0.1-0.7-0.4-2-0.5-2.7
		C365.4,709.7,367,704,368.8,698.4z"/>
	<path class="st51" d="M1384.4,707c59.6-0.1,119.3,0,178.9-0.1c0.2,91.9,0,183.8,0.1,275.8c-0.1,8.2,0.3,16.4-0.5,24.6
		c-47.2-0.1-94.4,0.1-141.5-0.1l0.1-0.4c3.4-5.8,1.2-12.7,2.9-18.9c1.9-7,0.8-14.4,2.4-21.5c1.8-8.2,1-16.7,1.2-25
		c0.1-18.1-0.2-36.3-0.1-54.4c0-4.4-1-8.6-0.9-13c-0.1-6.5,0.7-13-1-19.3c-1.2-4.6-2.2-9.3-2.5-14.1c-2.3-10.2-3.9-20.5-6.2-30.7
		c-1-4.8-2.1-9.5-2.5-14.3c-0.4-0.4-1.2-1.3-1.6-1.7c-2.9-3.5-5.5-7.3-8.3-10.9c0.4-13,0.4-26.1-0.6-39
		C1397.9,731.6,1390.5,719.6,1384.4,707z"/>
	<path class="st52" d="M1563.4,706.9l1.3-0.6c0.2,58.4,0,116.9,0.1,175.3c-0.1,42.2,0.2,84.5-0.1,126.7c-10.2,1.1-20.4-0.1-30.6,0.3
		c-34.4,0-68.8,0.1-103.2,0c-3.2,0-6.5,0.3-9.7,0.5c0.1-0.5,0.3-1.4,0.4-1.8c47.2,0.2,94.4,0.1,141.5,0.1c0.7-8.2,0.4-16.4,0.5-24.6
		C1563.4,890.8,1563.6,798.9,1563.4,706.9z"/>
	<path class="st9" d="M1565.3,706.9c72.7,0.3,145.4-0.1,218.1,0.2c-0.1,182.3,0,364.5,0,546.8c-144.7,0.3-289.4,0-434.1,0.1
		c-9.7-0.1-19.4,0.3-29.1-0.3c1.8-2.4,3.7-4.8,5.5-7.2c2.2-2.8,4.5-5.7,6.7-8.6c3.6-4.8,7.8-9.3,11-14.5
		c6.9-13.4,13.9-26.7,20.7-40.2c3.7-7.1,7.4-14.3,11-21.4c2.2-4.1,4.3-8.2,6.3-12.3c1.2-2.3,2.2-4.7,3-7.2c-3.4,0-6.7,0.1-10.1-0.2
		c-4.7-0.8-9.5-0.3-14.3-0.2c-30.9,0.1-61.9-0.1-92.8,0.1v-0.5c29.2,0.3,58.3,0,87.5,0.2c6.5,0.2,13-0.9,19.5-0.2
		c0.2-6.7,0.1-13.4,0.4-20.1c0.1,6.4,0,12.8,0,19.2c3,1.2,6.8,1.8,9.6-0.3c1.7-4.1,2.5-8.5,3.9-12.7c1.1-3.8,2.7-7.6,2-11.6
		c-1.8,1.2-3.4,2.6-5,4c-0.1-0.3-0.2-0.8-0.2-1.1l0.3-0.3c4.5-4.8,8.1-10.3,12.3-15.4c1.7-2.4,4.2-4.5,4.9-7.5
		c5.4-21.9,10.8-43.7,16.2-65.6c1.3-7,1.7-14.1,2.6-21.1c3.2-0.2,6.4-0.5,9.7-0.5c34.4,0.1,68.8,0,103.2,0
		c10.2-0.3,20.5,0.8,30.6-0.3l0.3,0c0-91.8,0-183.7,0-275.5C1565.2,724.1,1564.5,715.4,1565.3,706.9z"/>
	<path class="st53" d="M365,732.8c4.8-4.7,9.1-10,13.8-14.8c0.6,2.4,1.1,4.9,1.3,7.4c-4.3,3.6-7.4,8.4-11,12.7
		c-6.2,7.6-12,15.5-18.6,22.7c1.6-6.5,3.6-12.9,5.6-19.2C359.8,739.5,362,735.6,365,732.8z"/>
	<path class="st54" d="M369.1,738c3.6-4.3,6.7-9.1,11-12.7c0.2,5.9,1.7,11.7,1.9,17.6c-1.7,8.2,1.5,16.4,1.8,24.6
		c0.2,2.9-0.7,6.4,2.5,8c0.1,2.4,0.6,4.8,1.7,6.9c12.7,25.3,25.3,50.7,38.1,75.9c-1.7,7.5-4.6,15-2.8,22.8c0,0.3,0,0.8,0,1.1
		c-2.3,2.8-1.2,6.8-1.8,10.2c-1.2,9.9,0,19.9-1.5,29.8c-1.7,15.7-0.9,31.6-2.7,47.3c-0.9,7,1.5,13.8,1.4,20.7c0,6.6,1.9,13,2.2,19.6
		c0.2,3.4,0.1,6.7,0.6,10.1c-6,2-12.4,0.9-18.6,1.2c-0.2-0.4-0.5-1.2-0.7-1.6c-1.8-17.8-3.8-35.6-5.1-53.5c0.8-2.8,1.1-5.6,0.5-8.5
		c-1.8-9-1.1-18.2-2.9-27.2c-0.4-7.7-3.2-15-4.9-22.5c-3.1-12.3-6.3-24.6-9.7-36.9c-0.4-0.4-1.1-1.1-1.5-1.5
		c-9.4-36.1-18.7-72.2-28.2-108.2c0-0.2,0.1-0.4,0.2-0.6C357,753.5,362.9,745.6,369.1,738z"/>
	<path class="st55" d="M354,742.3c1.7-3.9,1.7-8.8,5.1-11.8c-1.1,3.7-2.1,7.4-3,11.1c-2,6.4-4,12.7-5.6,19.2c0,0.2-0.1,0.4-0.2,0.6
		c-1.9,6.9-5,13.3-7.6,19.9c-3.2,6.3-3.8,13.3-5.3,20.1c-4,20.6-7.9,41.1-12,61.7c-1.7,6.8-0.7,13.9-0.8,20.8
		c0.7,37,2.2,74.1,3.3,111.1c-2.7-2.2-1.6-6-2.1-9.1c-0.4-16.7-1.1-33.4-1.4-50.1c-1.2-16.2-1.5-32.5-1.6-48.8
		c-0.1-7.1-0.7-14.3,0.2-21.4c4.4-22.9,8.9-45.8,13.4-68.7c1-12.2,8.4-22.5,11.6-34.1C349.7,755.9,352.2,749.2,354,742.3z"/>
	<path class="st56" d="M611.3,733c7,4.2,13.4,9.5,20.5,13.5c0.2,0.2,0.7,0.5,0.9,0.6c11.8,8.9,24.4,16.7,36.4,25.4
		c1.8,3.4,5.5,5.1,8.5,7.3c1.4,1.1,3.1,1.5,4.8,1.6c0.2,0,0.7,0.1,0.9,0.1c2.7,2.9,6.1,4.8,9.3,7.1c20,13.7,40,27.4,60,41.2
		c12.5,8.1,24.3,17.3,36,26.4c2.3,4.4,7,6.5,10.6,9.5c2.1,1.7,4.4,3.2,7,4.3c5.9,3.8,11.3,8.2,16.6,12.8c-2.9,1.3-5.9,2.6-8.9,3.7
		c-0.4,1.7-0.7,3.4-0.6,5.2c-33.3-23.5-66.2-47.5-99.3-71.3c-28.1-20.5-57.1-39.9-85.5-60c-0.2-0.1-0.5-0.4-0.6-0.5
		c-1-3.4-4.3-5.5-7.8-5.3c-5.7-3.8-11.4-7.6-16.8-11.8c2.1-1.2,4.1-2.4,6.2-3.6C610.3,737.1,610.8,735,611.3,733z"/>
	<path class="st8" d="M590.5,748.6c4.3-2.5,8.4-5.4,13.1-7.2l-0.1,1.3c-27.5,16.2-55.3,31.8-82.9,47.9c-6.2,4.3-11.8,9.4-17.8,13.9
		c0.6-2.1,2-3.8,3.8-5.1c6.1-4.5,11.6-9.7,18.4-13.2C547,773.9,568.6,761,590.5,748.6z"/>
	<path class="st33" d="M520.7,790.7c27.6-16.1,55.4-31.7,82.9-47.9c5.4,4.2,11.1,8.1,16.8,11.8c2.5,1.8,5.1,3.6,7.8,5.3
		c0.2,0.1,0.5,0.4,0.6,0.5c-2,3.5-1.7,7.7-2.5,11.5c-0.6,3.1-0.1,6.2,1.6,8.9c-1.5-0.7-2.7-1.9-3.7-3.2c1.4-5.1,1.2-10.4,1.7-15.6
		c0.5-2.2-1.7-3.5-3.2-4.6c-6.5-4.4-12.7-9.2-19.5-13.1c-10.7,6.7-21.9,12.4-32.6,19c-9.6,5.7-19.4,11-29,16.7
		c-8.8,5.3-18.4,9.5-26.3,16.3c-4.4,3.5-8.8,7-13.1,10.5c-1.2,1.1-2.8,1.4-4.2,1.9c1.7-1.4,3.3-2.7,4.9-4.1
		C508.9,800,514.5,795,520.7,790.7z"/>
	<path class="st57" d="M383.8,767.6c-0.3-8.2-3.5-16.4-1.8-24.6c1.8,10.8,3.2,21.7,4.3,32.6C383.1,774,384,770.4,383.8,767.6z"/>
	<path class="st58" d="M570.5,763.3c10.7-6.6,22-12.3,32.6-19c6.8,3.9,13,8.7,19.5,13.1c1.5,1.1,3.7,2.3,3.2,4.6
		c-0.5,5.2-0.3,10.5-1.7,15.6c1,1.3,2.2,2.4,3.7,3.2c16.3,11,31.9,23.1,47.9,34.5c36.9,26.8,73.7,53.7,110.5,80.5
		c2.9,2.1,6.5,2.5,9.8,3.5c5.3,1.6,10.7,3,16.1,4.4c1.8,13.2,1.2,26.6,1.9,39.9c-0.1,22.4,2,44.7,2.2,67.1c-0.1,2.9-0.4,5.8-0.6,8.8
		c-15.4,0-30.8,0.2-46.2-0.1c-0.3-32.5-0.1-65-0.1-97.4c-0.5-6.4,1-13-0.6-19.3c-4-4.5-9.9-6.5-14.1-10.7c-0.9-0.1-2.6-0.2-3.4-0.2
		c-43.9-29.4-87.4-59.4-131.2-89c-6.7-4.2-12.8-9.5-19.9-13c-49.3,32.9-98.3,66.1-147.4,99.2c-7.3,4.6-14.1,10.1-21.8,14.2
		c-0.8-8.3,2.3-16.4,2-24.7c-0.1-5.5,0.6-10.9,1.6-16.3c0.1-2.1,2.1-3.1,3.5-4.3c4.6-3.3,8.7-7.3,13.3-10.6c1.3-0.8,1.9-2.2,2.6-3.4
		c0.1-0.1,0.3-0.2,0.4-0.3c4.1-1,6.9-4.5,10.3-6.8c5.9-5.1,12.4-9.3,18.1-14.5c4.6-4.3,10.1-7.5,14.7-12l-0.6-0.7
		c0.3-0.2,0.9-0.6,1.2-0.9c1.5-0.5,3.1-0.8,4.2-1.9c4.3-3.6,8.8-7,13.1-10.5c7.9-6.7,17.5-11,26.3-16.3
		C551.1,774.3,560.9,769,570.5,763.3z"/>
	<path class="st59" d="M632.8,747.1c4.6,0.4,7.8,3.9,11.5,6.2c9.3,6.7,19,12.9,28.4,19.5c3.1,2.2,6.8,3.9,8.8,7.3
		c-4.4-2.1-8.1-5.3-12.3-7.6C657.2,763.8,644.6,756,632.8,747.1z"/>
	<path class="st60" d="M620.3,754.6c3.5-0.2,6.8,1.9,7.8,5.3C625.5,758.2,622.9,756.5,620.3,754.6z"/>
	<path class="st61" d="M1067.2,793.7c2.7-12.9,4.9-26,7.8-38.9c0.5,2.3,0.7,4.7,0.1,7c-1.5,6.8-2.4,13.8-4.2,20.6
		c-1.5,5.7-1.8,11.6-3.6,17.2C1066.2,797.7,1066.8,795.6,1067.2,793.7z"/>
	<path class="st8" d="M1061.8,792.8c1.6-11.9,3.4-23.8,5.3-35.7c1,5.7-0.8,11.3-1.7,16.9c-0.5,6.1-1.9,12-2.7,18L1061.8,792.8z"/>
	<path class="st62" d="M1387.2,759.5c4.2,5.9,8.5,11.6,12.8,17.4c0.8,1.4,1.9,2.8,3,4.1c0.4,0.6,1.3,1.7,1.7,2.2
		c2.8,3.6,5.4,7.3,8.3,10.9c2,8.3,3.4,16.7,5,25.1c-0.6,3.6-0.6,7.3,0.4,10.9c1.5,5.2,2,10.6,3.3,15.9c0.8,6.1,2.8,12.1,2.7,18.4
		c-0.2,13.8,0.7,27.6,0.6,41.4c-0.1,14.8,0.6,29.7,0.6,44.5c0,6.2-1.1,12.3-1.4,18.4c-0.5,7.9-3.6,15.8-1.3,23.7
		c-0.4,4.9-1.1,9.7-1.5,14.6l-0.1,0.4c-0.1,0.5-0.3,1.4-0.4,1.8c-0.9,7-1.3,14.2-2.6,21.1c-5.4,21.9-10.8,43.7-16.2,65.6
		c-0.7,3-3.2,5.1-4.9,7.5l-0.5-1.1c-3.6,3.8-6.4,8.4-10.1,12.2c0-7.6,1.4-15.3-0.5-22.8v0c1.9-1.3,1.3-3.7,1.5-5.6
		c0.2-12,1.4-23.9,1.2-35.9c-0.2-9.5,1.7-19.3-1.1-28.6c-1.2-3.4-0.4-7.9-3.2-10.4l-0.2-0.8c1.1-5.2-1.2-10.3-2-15.4
		c-2.5-9.9-3.3-20.3-6.8-29.9c-1.6,0.1-3.2,0.2-4.7,0.4c1.4-0.5,2.7-0.9,4.1-1.4c-0.2-1-0.3-1.9-0.4-2.9
		c3.3-20.6,8.6-40.8,12.3-61.3c1-3.7,1.7-7.4,2.6-11c2.3-3.8,1.2-8.3,1.4-12.4c0-27.9-0.2-55.8,0-83.7c-0.1-4.1,0.6-8.4-1.3-12.2
		c-0.5-1.5-1.1-3.1-1.4-4.6C1387.3,770.3,1384.8,764.8,1387.2,759.5z"/>
	<path class="st15" d="M628.7,760.4c28.4,20.1,57.4,39.5,85.5,60c33.1,23.7,66,47.7,99.3,71.3c0.3,3.5,0.6,7,0.8,10.5
		c-4.1,0.3-7.5-2.3-11.4-2.5c-5.6-0.9-10.9-3.1-16.5-3.8c-36.9-26.8-73.7-53.7-110.5-80.5c-16-11.4-31.6-23.6-47.9-34.5
		c-1.8-2.6-2.3-5.8-1.6-8.9C627,768,626.7,763.9,628.7,760.4z"/>
	<path class="st63" d="M342.7,781.2c2.5-6.6,5.6-13,7.6-19.9c9.5,36,18.8,72.1,28.2,108.2c2.5,12.2,6.4,24,9.1,36.1
		c2,9,5.5,17.6,5.8,26.9c1.4,11.1,1.6,22.4,3.6,33.5c1.3,17.9,3.3,35.6,5.1,53.5c0,0.9,0.1,2.6,0.1,3.5l-1.3,0
		c-12.3,0.5-24.7,0.8-37,2c-9.3-23.1-17.9-46.4-27-69.6c-3.1-7.4-5.2-15.2-9.1-22.2c-1.3-4-1.7-8.2-1.6-12.4
		c0.3-17.8-1.9-35.5-0.8-53.2c4.8-25.5,9.9-50.9,14.6-76.3C340.7,787.8,342.2,784.7,342.7,781.2z"/>
	<path class="st64" d="M669.2,772.4c4.2,2.4,8,5.5,12.3,7.6c0.2,0.3,0.7,0.9,1,1.3c-1.7-0.1-3.5-0.5-4.8-1.6
		C674.6,777.5,671,775.9,669.2,772.4z"/>
	<path class="st65" d="M1387.5,778.3c0.1-0.7,0.4-2,0.6-2.7c0.4,1.5,0.9,3.1,1.4,4.6c-0.1,18.8,0.1,37.5-0.2,56.3
		c-2-5-0.9-10.5-1.2-15.8C1387.8,806.6,1388.8,792.4,1387.5,778.3z"/>
	<path class="st66" d="M1400,776.8c2.5-0.9,4.3,1.9,3,4.1C1401.9,779.6,1400.9,778.2,1400,776.8z"/>
	<path class="st67" d="M1389.6,780.3c1.9,3.8,1.2,8.1,1.3,12.2c-0.2,27.9,0,55.8,0,83.7c-0.2,4.1,0.9,8.6-1.4,12.4
		c-0.2-17.2,0.3-34.5-0.2-51.7l0-0.3C1389.6,817.8,1389.4,799.1,1389.6,780.3z"/>
	<path class="st8" d="M337.5,801.4c1.4-6.8,2.1-13.9,5.3-20.1c-0.5,3.4-2,6.6-2.7,10c-4.7,25.5-9.9,50.9-14.6,76.3
		c-1,17.8,1.2,35.5,0.8,53.2c-0.2,4.2,0.3,8.4,1.6,12.4c-0.8,8.2,0.2,16.4,0,24.6c-0.2,5.4,1,10.8,0.9,16.3
		c-0.1,7.9-0.1,15.8,1.3,23.5c-0.7,8.1,0.6,16.2,0.1,24.3c-0.1,3.1,0.9,6.2,0.5,9.3c-1.2-2.8-1.7-5.8-1.6-8.8
		c-0.3-9.1-0.7-18.3-1-27.4c-1.1-37-2.6-74.1-3.3-111.1c0.1-6.9-0.9-14,0.8-20.8C329.6,842.5,333.4,821.9,337.5,801.4z"/>
	<path class="st59" d="M683.4,781.5c1.5,0.1,2.9,0.6,4.2,1.4c25.5,17.7,51.1,35.2,76.6,52.6c9.1,6.5,17.8,13.4,26.7,20.1
		c3.2,2.5,7,4.5,8.8,8.2c-3.8-2.4-7.2-5.3-11-7.7c-11.8-9.2-23.5-18.3-36-26.4c-19.9-13.8-40-27.5-60-41.2
		C689.6,786.3,686.1,784.4,683.4,781.5z"/>
	<path class="st68" d="M600,789.6c7.1,3.6,13.2,8.8,19.9,13c43.8,29.6,87.3,59.5,131.2,89c5.2,3.9,10.8,7.1,15.9,11.1
		c-0.9,12.1-0.1,24.3-0.3,36.4c0,27.4-0.1,54.7,0.1,82.1c-111.4-0.1-222.8,0.1-334.3-0.1c-1.4-4-1.9-8.3-2.1-12.5
		c-1.8-14.1-3.7-28.2-5.2-42.3c-0.4-4.4,0.7-8.7,1-13c-0.1-9.8,2.2-19.5,2.3-29.3c0.7-7,1.4-14,2.4-20.9c7.6-4.1,14.4-9.6,21.8-14.2
		C501.7,855.8,550.8,822.5,600,789.6z"/>
	<path class="st8" d="M920.5,846.1c47-17.7,94-35.4,141-53c-0.3,0.6-0.8,1.8-1.1,2.4c-19.1,6.4-37.8,14-56.7,20.9
		c-30.3,11.4-60.5,22.9-90.9,34.1l-2-0.4l0.7-0.3C914.4,848.4,917.4,847.2,920.5,846.1z"/>
	<path class="st41" d="M1413.1,793.9c0.4,0.4,1.2,1.2,1.6,1.7c0.4,4.8,1.6,9.6,2.5,14.3c2.3,10.2,4,20.5,6.2,30.7
		c0.4,4.8,1.4,9.4,2.5,14.1c1.7,6.3,0.9,12.9,1,19.3c-0.1,4.4,0.9,8.6,0.9,13c-0.1,18.1,0.2,36.3,0.1,54.4c-0.2,8.3,0.6,16.8-1.2,25
		c-1.6,7.1-0.5,14.4-2.4,21.5c-1.7,6.2,0.5,13.1-2.9,18.9c0.4-4.9,1.1-9.7,1.5-14.6c1.6-12.6,3.1-25.2,4.3-37.8
		c-0.1-30.4-0.7-60.8-1.1-91.2c0-4.1-1.1-8-1.8-12c-2.2-10.7-4.1-21.5-6.4-32.2C1416.5,810.6,1415.1,802.2,1413.1,793.9z"/>
	<path class="st62" d="M1003.7,816.3c18.9-6.9,37.6-14.5,56.7-20.9c-0.4,3-0.6,6-0.4,9c-20.8,8.7-42.2,16.1-63.2,24.4
		c-22.6,8.6-45.2,17.2-67.9,25.8c-5.2,2.1-10.5,3.8-15.5,6.3c0,0.5,0.1,1.5,0.1,2c-1.9-3.4-3.6-6.9-5.5-10.3
		c1.6-0.7,3.1-1.5,4.7-2.2C943.1,839.2,973.4,827.7,1003.7,816.3z"/>
	<path class="st5" d="M1064.8,806.7c0.7-2.4,1.6-4.7,2.5-7.1c15.6,18.5,30.7,37.4,46.1,56c6.9,8.7,14.5,16.9,20.6,26.2
		c24.1,35.1,48.1,70.2,72.3,105.2c1.5,2.3,3,4.6,4.6,6.9c-0.9,2-1.8,4.1-2.8,6.1c15.6-3,31.2-6.5,46.7-10c4.1-0.7,8.3-2.6,12.5-1.2
		c-20.1,4.4-40.2,8.7-60.3,13c-2.7,0.5-3.6,3.3-4.9,5.3c-1.8,3.6-5,6.9-4.7,11.2c-0.1,0.3-0.4,0.7-0.6,1c-3.4,1.4-5.8,5.7-5.7,9.3
		l0.1,0.9c-0.1,0.1-0.2,0.3-0.2,0.3c-6.4,10.2-12.1,20.9-18.2,31.3c-3.9,6.6-7.3,13.5-12,19.6c-5.2,7.3-10.6,14.4-15.7,21.8
		c-1.8,2.2-3.5,4.6-5.1,7c-16.4,22.3-32.3,45.1-48.6,67.5c-1.9,2.2-3.6,4.6-5.3,6.9c-5.5,7.3-10.8,14.8-16,22.3
		c-1.4,1.4-2.5,3.4-4.4,4.1c-23.8-5.6-47.8-10.4-71.7-15.8c-12.3-2.7-24.5-5.5-36.8-8c-11.3-2.8-22.9-4.3-33.8-8.4
		c-29-9.8-58.2-19.1-87.3-28.9c-2-0.4-4.3-2.1-6.3-0.7c-10.2,6.5-20.3,13.2-31.1,18.8c-37.7,20.2-75.4,40.6-113.1,60.8
		c-17.3,9.5-34.9,18.5-52.2,28.1c-3.1,1.7-6.3,3.3-9.5,4.9c4.8,11.7,10.2,23.2,15.6,34.6c5.6,12.5,11.3,25,17,37.5
		c4.6,9.1,7.8,19.1,13.5,27.7c21.3,20.3,42.8,40.6,64.2,60.8c1.2,1.3,2.9,1.7,4.6,1.9c58.7,9.5,117.3,19,176,28.6
		c2.8,0.5,5.7,0.3,8.4-0.8c33.7-11.9,67.7-23.4,101.4-35.4c23.8-14,46.7-29.6,70.2-43.9c0.1-0.6,0.2-1.7,0.3-2.2c3.4-0.1,7-2.3,7-6
		c0.2,0.9,0.4,1.8,0.7,2.8c26.6-4.8,53-10.6,79.6-15.4c6-0.8,11.1-4.2,16.6-6.4c20.1-9,40-18.5,60.1-27.6c-5.2,1.4-9.7,4.7-15,5.9
		c1.4-3.3,4-5.7,6.3-8.3c5.4-6.1,10.8-12.1,16.1-18.3c-0.3-9.6-0.2-19.2-0.2-28.8l0.8-1.2c0.5,9.7-0.7,19.5,0.7,29.2l0.1,0.7
		c3.2-3.5,7.6-6.7,8.4-11.7c3.3-4.2,6.9-8,10.4-12c0.2-0.3,0.7-0.8,0.9-1.1c2.2-2.5,4.4-5.1,6.7-7.5c0.6-0.6,1.2-1.2,1.7-1.8
		c2-2.1,4-4.3,5.9-6.5c3.1-0.2,4.7-3.4,6.8-5.4c2.4-3.3,6.4-5.7,6.9-10.1c1.8-2.2,3.5-4.5,5-6.9c3.8-1.7,5.1-6,7.3-9.3
		c8-14.4,16.7-28.3,24.9-42.6c1.5-2.3,2.9-4.7,2.8-7.6c0.9-1.8,2-3.5,3-5.2c2.9,0.5,4.2-2.8,3-5.1c0.3-0.5,0.9-1.4,1.3-1.9
		c5.8-4.6,7.1-12.7,12.5-17.7c2-0.5,4.1,0,6.1,0.2c-0.2,1.7-0.4,3.4-0.1,5.1c-2.1,4.1-4.2,8.2-6.3,12.3c-0.5,0.2-1.6,0.7-2.1,1
		c-3.6,6.2-7.2,12.5-9.6,19.3l0.7,1.1c-6.8,13.4-13.8,26.8-20.7,40.2c-3.2,5.2-7.4,9.6-11,14.5l-0.4-1.3c-2.6,2.8-6.7,5.6-6.3,9.9
		c-1.8,2.4-3.7,4.8-5.5,7.2c-10.2,12.9-20.3,25.9-30.4,38.8c-2.3,2.7-5.3,4.8-7.9,7.3c-20.3,17.9-40.2,36.2-60.8,53.8l-0.1,0.1
		c-1,0.9-2,1.8-2.9,2.7c-5.2,4.8-10.6,9.3-15.9,13.9c-1.4,0.9-2.7,1.9-4,3c-11.6,7-23.1,14.2-34.8,21c-1.6,0.8-3.2,1.8-4.6,2.9
		c-4.7,2.9-9.5,5.8-14.2,8.7c-0.7,0.3-1.4,0.6-2,1c-1.8,1-3.5,2-5.3,3.1c-4.9,2.9-9.5,6.4-14.9,8.3c-30.5,11.8-60.9,23.9-91.4,35.7
		c-16.5,4.4-33.2,7.8-49.8,12c-7.3,1.2-14.3,4.3-21.8,4c-6.5,0-13,0.1-19.6,0.1c-3.3,0.3-5.7-2.4-8.5-3.7c-1.3,0.7-2.6,1.4-3.8,2.1
		c-4.9-0.3-8,4.4-12.6,5.2c-15.6-0.6-31.2-1.1-46.8-1c-10.9-0.3-21.8,0.4-32.6-0.8c-14,0-27.4-4.1-41.2-6.1
		c-11.7-2.8-23.7-4.4-35.5-6.8c-12.7-3.2-25.9-3.9-38.2-8.6c-21.1-7.1-42.3-14-63.4-21c-6.1-1.7-11.4-5-16.9-8
		c-8.2-5.1-16.9-9.3-25-14.4c-1.6-1.2-3.5-1.2-5.3-1.3c-8.9-4.9-17.8-9.8-26.6-14.9c-1.4-3.5-5.4-4.4-8.3-6.3
		c-8.2-4-15.6-9.3-23.8-13.1c-7.4-4.3-12.9-11.2-19.6-16.4c-2.3-1.7-3.9-5.2-7.2-4.7l-0.2-0.2l0.1,0.6
		c-14.6-13.4-29.7-26.4-44.3-39.8c-25.4-31.4-50.5-63.1-75.8-94.6c-1.3-1.7-2.3-3.6-3.2-5.4c-15.8-31.7-31.8-63.2-47.6-94.9
		c-6.3-21.9-11.9-44-17.9-66c-1.6-6.3-3.7-12.5-4.9-18.9c0.5-3.1-0.6-6.2-0.5-9.3c0.5-8.1-0.9-16.2-0.1-24.3
		c3.8,10.5,5.6,21.5,8.2,32.2c0.4,1.6,1.2,3,1.9,4.5c2.9,11.2,5.4,22.5,8.5,33.6c7.3,15.2,15.2,30.1,22.4,45.3
		c3.7,10,9.4,19.1,14,28.6c2.9,7.1,6.8,13.8,10.5,20.5c5.6-4.7,9.5-11,14.4-16.3c5.1-5.8,10-11.7,14.5-18c0.5-0.7,1.5-2,2-2.6
		c2.5,1,4.5-1.6,3.3-3.9c1.1-1.3,2.1-2.7,3.1-4.1c-0.1-0.9-0.3-2.7-0.4-3.7l0.5,0.8c0.4,0.5,1.1,1.5,1.5,2c2.2-2.2,4-4.7,5.6-7.4
		l0.7-1.1c1.3,1.1,3,1.5,4.7,1.1c1,0.8,2,1.5,3.1,2.3c2.3,2,4.6,3.9,6.9,5.8c6.3,5.6,12.7,11.1,19.4,16.2l0.1,0.1
		c4.3,4.2,9.1,7.9,13.8,11.7c4,3.5,8.2,6.8,12.1,10.4c0.7,2.8,2.8,4.9,5.8,5c3,2.4,5.9,5,9.1,7.2c0.7,0.6,1.4,1.3,2.2,2
		c0.8,0.9,1.7,1.8,2.5,2.8c1.4,2.8,3.6,5.3,7,5.3c5.4,4.3,10.6,8.9,16,13.3c1.7,1.6,3.4,3.1,5.2,4.7c0.9,2.7,2.9,5,5.9,5
		c3,2.4,6,5,9.1,7.3c2.3,2.1,4.7,4.1,7.3,6c1.8,1.5,3.7,3.1,5.5,4.6c11.6,10.2,23.6,20,35.5,29.9c1.8,1.7,3.7,3.4,5.8,4.9
		c0.5-0.3,1.4-0.9,1.9-1.1c4.4-2.7,9-5,13.5-7.5c3.9-1.8,7.7-4,11.5-6c2.9-0.1,6.1-0.8,7.2-3.8c6.6-3.9,13.6-7.2,20.2-11.2
		c0.3-0.2,1-0.6,1.4-0.8c8.7-4.2,17.1-9.2,25.7-13.6c2.8-0.2,5.8-0.8,7-3.7c0.4-0.2,1.1-0.6,1.5-0.8c6.1-1,11.2-4.8,16.6-7.6
		c2.7-1.9,6.4-2.5,8-5.7c5.8-3.4,11.7-6.6,17.7-9.6c2.4-0.3,4.8-1,6.9-2.2c4-2.3,8.6-3.8,11.5-7.6c18-9.9,36.6-19.1,54-30.1
		c-0.8-29-1.7-58-2.8-87c-0.5-10.7,0.1-21.5-0.8-32.2c1.7-12.4-0.2-24.9-0.6-37.3c-0.4-21.7-0.6-43.5-2.2-65.1
		c-0.4-5.8,0-11.6-0.5-17.4c-0.3-0.3-1-0.9-1.3-1.2v-0.1c-0.2-3.5-0.5-7-0.8-10.5c-0.1-1.8,0.2-3.5,0.6-5.2c3-1.2,6-2.4,8.9-3.7
		l0.2,0.1c0.6,0.2,1.7,0.7,2.3,0.9c27.5-10.4,55-20.8,82.6-31.1c1.9,3.4,3.6,6.9,5.5,10.3c4.7,8.3,8.3,17.2,13,25.5
		c41.4-13.9,82.5-29,124-42.8c4.5,2,7.9,5.9,11.9,8.8c18.1,14.4,36.1,29.1,54.3,43.5c6.2,5,12.1,10.3,18.8,14.6
		c-3.5-6.7-8.2-12.6-12.3-18.9c-14.4-21.2-28.7-42.4-43.1-63.5C1075.2,822.2,1069.4,814.9,1064.8,806.7z"/>
	<path class="st63" d="M996.8,828.9c21-8.3,42.4-15.7,63.2-24.4c1.8,0.2,3.7,0.5,4.8,2.2c4.6,8.1,10.4,15.5,15.4,23.4
		c14.4,21.1,28.7,42.4,43.1,63.5c4.1,6.3,8.8,12.2,12.3,18.9c-6.7-4.3-12.6-9.7-18.8-14.6c-18.2-14.3-36.2-29-54.3-43.5
		c-4-2.8-7.4-6.8-11.9-8.8c-41.5,13.8-82.5,28.9-124,42.8c-4.7-8.3-8.3-17.2-13-25.5c0-0.5,0-1.5-0.1-2c5-2.5,10.3-4.2,15.5-6.3
		C951.6,846.2,974.2,837.5,996.8,828.9z"/>
	<path class="st33" d="M486.5,817.6c3.5-2.6,6.8-5.4,10.2-8l0.6,0.7c-4.5,4.4-10,7.6-14.7,12c-5.7,5.2-12.3,9.4-18.1,14.5
		c-3.4,2.3-6.1,5.8-10.3,6.8C464.9,834.6,475.9,826.3,486.5,817.6z"/>
	<path class="st69" d="M887.6,810.4c1.3,0.5,2.6,2.7,2,4.2C888.1,814,886.7,811.8,887.6,810.4z"/>
	<path class="st70" d="M891.9,815.9c5.3,7,7.7,15.7,11.9,23.4c1.9,3.3,2.9,7.3,6,9.8l1.5,0.6l-0.7,0.3c-0.4,0.1-1.1,0.4-1.5,0.5
		l-1.2,0.2c-4.8-9.2-9.2-18.7-13.9-28C893.1,820.6,892,818.4,891.9,815.9z"/>
	<path class="st8" d="M480.6,820.3c1.7-1.5,3.7-2.5,6-2.7c-10.6,8.8-21.7,17.1-32.2,25.9c-0.1,0.1-0.3,0.2-0.4,0.3
		c-1.5,1.1-3,2.1-4.4,3.2c0.6-1.6,1.4-3.2,2.8-4.2C461.6,835.1,471.3,828,480.6,820.3z"/>
	<path class="st71" d="M1418.1,819c2.3,10.7,4.2,21.5,6.4,32.2c0.7,4,1.8,7.9,1.8,12c0.4,30.4,0.9,60.8,1.1,91.2
		c-1.2,12.6-2.7,25.2-4.3,37.8c-2.3-7.9,0.9-15.8,1.3-23.7c0.3-6.2,1.4-12.3,1.4-18.4c0-14.8-0.7-29.7-0.6-44.5
		c0.1-13.8-0.8-27.6-0.6-41.4c0.1-6.3-1.9-12.3-2.7-18.4c-1.3-5.3-1.8-10.7-3.3-15.9C1417.5,826.3,1417.5,822.6,1418.1,819z"/>
	<path class="st72" d="M1267,836.8c40.4-0.1,80.9-0.2,121.3,0l0,1.4c-40.4-0.3-80.8,0-121.2-0.2L1267,836.8z"/>
	<path class="st73" d="M1388.3,836.9l1.1,0c0.5,17.2,0,34.5,0.2,51.7c-0.9,3.7-1.6,7.4-2.6,11c-0.9-5.4,1.5-10.5,1.3-15.9
		c0-15.2,0-30.3,0-45.5L1388.3,836.9z"/>
	<path class="st19" d="M1267,838.1c40.4,0.2,80.8-0.2,121.2,0.2c-0.1,15.2-0.1,30.3,0,45.5c0.2,5.4-2.2,10.5-1.3,15.9
		c-3.7,20.5-9,40.8-12.3,61.3c-35.7,7.8-71.6,15-107.5,22.1C1266.9,934.8,1267.1,886.4,1267,838.1z"/>
	<path class="st33" d="M449.5,847c1.5-1.1,3-2.2,4.4-3.2c-0.7,1.2-1.3,2.6-2.6,3.4c-4.6,3.3-8.8,7.2-13.3,10.6
		c-1.4,1.2-3.4,2.2-3.5,4.3c-0.9,5.4-1.7,10.8-1.6,16.3c0.2,8.3-2.8,16.4-2,24.7c-1,7-1.8,14-2.4,20.9c-0.2,9.8-2.4,19.5-2.3,29.3
		c-0.3,4.3-1.4,8.6-1,13c1.6,14.1,3.4,28.2,5.2,42.3c0.2,4.2,0.7,8.5,2.1,12.5l0,0.7c-0.8,0.5-2.5,2.8-2.1,0.4
		c0.7-3.1,0.2-6.2-0.3-9.2c-1.9-15.6-3.9-31.1-5.8-46.7c-0.2-2.1,0-4.3,0.2-6.4c3-32.7,5.7-65.5,8.6-98.3c0-0.6,0.1-1.2,0.1-1.7
		c3.3-2.5,6.6-5,9.7-7.7c0.2-0.1,0.5-0.4,0.7-0.5c1.5-1,2.9-2,4.2-3.3C448.4,847.9,448.9,847.5,449.5,847z"/>
	<path class="st8" d="M443.7,851.7c-0.6-2.5,1.9-4.5,4.2-3.3C446.6,849.6,445.2,850.7,443.7,851.7z"/>
	<path class="st74" d="M909.2,850.5c0.4-0.1,1.1-0.4,1.5-0.5l2,0.4c-1.6,0.7-3.1,1.5-4.7,2.2c-27.6,10.3-55.1,20.7-82.6,31.1
		c-0.6-0.2-1.7-0.7-2.3-0.9l1.5-0.6c26-10,52.2-19.9,78.4-29.5C905.1,852.1,907.2,851.3,909.2,850.5z"/>
	<path class="st8" d="M433.5,858.3c2.7-2.6,5.4-6,9.5-6.1c-3.1,2.7-6.4,5.3-9.7,7.7L433.5,858.3z"/>
	<path class="st2" d="M877.8,861.7c8.4-2.9,16.6-6.8,25.2-9c-26.2,9.6-52.3,19.5-78.4,29.5c-0.2-0.2-0.8-0.7-1-1
		c3.3,0.3,6.2-1.7,9.3-2.7C848,873,862.8,867.2,877.8,861.7z"/>
	<path class="st75" d="M788.7,856.1c3.8,2.4,7.2,5.3,11,7.7c1.5,1.2,3.1,2.3,4.8,3.4c0.5,0.7,1.4,2,1.9,2.7c-2.6-1.1-4.9-2.6-7-4.3
		C795.7,862.6,791,860.5,788.7,856.1z"/>
	<path class="st76" d="M426.1,858.5c0.2,0.4,0.6,1.3,0.8,1.7c-1.7,7-3.4,13.9-3.7,21.1C421.5,873.5,424.4,865.9,426.1,858.5z"/>
	<path class="st77" d="M427,860.2c1.2,1.3,2.9,1.5,4.6,1.5c-0.1,4.5-0.1,9.1-0.9,13.6c-1.5,8.6-1.2,17.3-2.4,25.9
		c-0.8,6.1-0.9,12.3-1.3,18.5c-0.9,7.6-2,15.2-2,22.9c-1.1,10.8-3.5,21.8-1.1,32.6c1.4,6.1,1,12.4,2.3,18.5c1.3,5.9,0.6,12.1,2.4,18
		c1.3,4.8,0.1,9.9,1.6,14.7c1.7,6,1.3,12.3,2.5,18.4c1.3,6.4,1.2,13.1,2.4,19.5c0.2-1.2,0.4-2.3,0.6-3.5c1.6,11.3,3.1,22.6,3.4,34
		c0.3,4.9,0.3,9.8,1.1,14.6c-1.6,2.7-3.4,5.2-5.6,7.4c-0.4-0.5-1.1-1.5-1.5-2c0.6-9.4-2.6-18.4-2.3-27.8c0-6.6-2-12.9-2.1-19.5
		c0-8.4-2.2-16.7-2.3-25.1c-0.1-7-2.1-13.7-2.2-20.7c0-6.6-2.2-12.9-2.2-19.4c0-4.4-0.3-8.8-1.2-13.2c-2.1-10.9-0.5-21.9-1.2-32.9
		c0.3-14.4,1.8-28.6,2.2-43c0.3-10.3,1.8-20.6,1.5-30.9c0-0.3,0-0.8,0-1.1C423.5,874.1,425.3,867.2,427,860.2z"/>
	<path class="st8" d="M431.5,861.7l1.6,0c-2.9,32.8-5.6,65.5-8.6,98.3c-0.2,2.1-0.4,4.3-0.2,6.4c1.8,15.6,3.9,31.1,5.8,46.7
		c0.5,3,1,6.1,0.3,9.2c-0.4,2.4,1.3,0.1,2.1-0.4v0.5c-0.1,0.3-0.3,0.9-0.4,1.2l-0.8,2.2c1.2,11.6,2.9,23.2,4.2,34.8
		c-0.2,1.2-0.4,2.3-0.6,3.5c-1.2-6.5-1.1-13.1-2.4-19.5c-1.2-6.1-0.7-12.4-2.5-18.4c-1.5-4.8-0.2-9.9-1.6-14.7
		c-1.8-5.9-1.1-12.1-2.4-18c-1.3-6.1-0.9-12.4-2.3-18.5c-2.4-10.8-0.1-21.8,1.1-32.6c0-7.7,1.1-15.3,2-22.9
		c0.3-6.2,0.4-12.4,1.3-18.5c1.2-8.6,0.9-17.3,2.4-25.9C431.4,870.8,431.4,866.2,431.5,861.7z"/>
	<path class="st78" d="M804.5,867.3c2.6,1.1,5.1,2.5,7.3,4.3c3.9,3.3,8.2,6.1,11.9,9.7c0.2,0.2,0.8,0.7,1,1l-1.5,0.6l-0.2-0.1
		c-5.2-4.6-10.7-9-16.6-12.8C805.9,869.2,805,867.9,804.5,867.3z"/>
	<path class="st79" d="M378.4,869.6c0.4,0.4,1.1,1.1,1.5,1.5c3.5,12.2,6.6,24.5,9.7,36.9c1.6,7.5,4.5,14.7,4.9,22.5
		c1.8,9,1.1,18.2,2.9,27.2c0.6,2.8,0.3,5.7-0.5,8.5c-2-11.1-2.2-22.4-3.6-33.5c-0.2-9.3-3.8-17.9-5.8-26.9
		C384.8,893.6,381,881.7,378.4,869.6z"/>
	<path class="st80" d="M421.5,892.5c0.6-3.4-0.5-7.3,1.8-10.2c0.3,10.3-1.2,20.6-1.5,30.9c-0.3,14.4-1.9,28.6-2.2,43
		c-0.1,7.1-1.3,14.1-0.7,21.1c1.4,14.4,3.1,28.7,4.2,43.1l-1,1.7c-0.2-0.5-0.5-1.6-0.7-2.2c-0.5-3.4-0.4-6.7-0.6-10.1
		c-0.3-6.6-2.2-13-2.2-19.6c0.1-7-2.3-13.8-1.4-20.7c1.8-15.7,1-31.6,2.7-47.3C421.5,912.4,420.3,902.4,421.5,892.5z"/>
	<path class="st81" d="M751.1,891.7c0.9,0.1,2.6,0.2,3.4,0.2c4.2,4.2,10.2,6.2,14.1,10.7c1.6,6.2,0.1,12.9,0.6,19.3
		c0,32.5-0.2,65,0.1,97.4c15.4,0.3,30.8,0.1,46.2,0.1c0.3-2.9,0.5-5.8,0.6-8.8c0.3,3.6,0.3,7.2,0.3,10.8c-16.2,0-32.4,0.1-48.6-0.1
		c0.2-39.3,0.2-78.5,0-117.8l-0.9-0.8C761.9,898.8,756.3,895.5,751.1,891.7z"/>
	<path class="st82" d="M786.3,895.9c5.6,0.7,10.9,2.9,16.5,3.8c4,0.2,7.4,2.8,11.4,2.5v0.1c0.1,8.3,0.6,16.6,0.7,24.9
		c0,8.1,0.1,16.2,0.9,24.2c0.5,23.6,1.8,47.2,2.1,70.7l-0.8-0.4l-0.6-0.3c0.1-3.6,0-7.2-0.3-10.8c-0.2-22.4-2.3-44.7-2.2-67.1
		c-0.7-13.3-0.1-26.7-1.9-39.9c-5.4-1.3-10.7-2.8-16.1-4.4C792.8,898.3,789.2,897.9,786.3,895.9z"/>
	<path class="st83" d="M814.3,902.2c0.3,0.3,1,0.9,1.3,1.2c0.5,5.8,0,11.6,0.5,17.4c1.6,21.7,1.8,43.4,2.2,65.1
		c0.3,12.4,2.3,24.9,0.6,37.3l-0.5-0.6l-0.4-0.6c-0.2-23.6-1.6-47.2-2.1-70.7c-0.1-8.1-0.1-16.2-0.9-24.2
		C814.8,918.8,814.4,910.5,814.3,902.2z"/>
	<path class="st84" d="M767,902.8l0.9,0.8c0.2,39.3,0.2,78.5,0,117.8l-1.2,0c-0.1-27.4-0.1-54.7-0.1-82.1
		C766.9,927,766.2,914.9,767,902.8z"/>
	<path class="st85" d="M814.9,927.1c0.8,8,0.8,16.1,0.9,24.2C815,943.3,814.9,935.2,814.9,927.1z"/>
	<path class="st62" d="M327.8,933.2c3.9,7,6,14.8,9.1,22.2c9,23.2,17.7,46.5,27,69.6c12.3-1.2,24.7-1.4,37-2
		c0.5,4.5-0.1,9.4,2.6,13.3c0.2,1.4,0.3,2.8,0.4,4.2c-1.7,9.4,1,18.6,1.7,28c0.4,4.9-0.3,10.3,2.4,14.6c0.5,4.2,0.8,8.5,1.3,12.8
		c0.2,3,1.5,5.8,2.9,8.4c-1.5,1.6-0.4,4.7,2.1,3.9c1,2.1,2,4.1,3,6.2c-0.3,3,0.6,6.4,3.8,7.3c1.1,2.1,2.2,4.2,3.4,6.3
		c-4.5,6.2-9.5,12.2-14.5,18c-5,5.3-8.9,11.5-14.4,16.3c-3.7-6.7-7.6-13.4-10.5-20.5c-4.7-9.5-10.3-18.6-14-28.6
		c-3.2-8.9-8.4-16.9-12.2-25.6c-3.9-8.9-10-16.9-11.8-26.7c-2.1-9.4-4.9-18.7-6.7-28.2c0,0.4-0.1,1.1-0.1,1.5
		c-0.7-1.5-1.4-2.9-1.9-4.5c-2.6-10.8-4.5-21.8-8.2-32.2c-1.4-7.8-1.4-15.7-1.3-23.5c0.1-5.5-1.1-10.8-0.9-16.3
		C328,949.5,327,941.3,327.8,933.2z"/>
	<path class="st8" d="M418.9,977.3c-0.6-7.1,0.6-14.1,0.7-21.1c0.6,11-0.9,22,1.2,32.9c0.9,4.3,1.2,8.7,1.2,13.2
		c0,6.6,2.2,12.9,2.2,19.4c0.1,7,2.1,13.7,2.2,20.7c0.1,8.4,2.3,16.7,2.3,25.1c0.1,6.5,2.1,12.9,2.1,19.5
		c-0.3,9.3,2.9,18.4,2.3,27.8l-0.5-0.8c-3.3-31.1-6.3-62.3-9.4-93.4C422,1006.1,420.3,991.7,418.9,977.3z"/>
	<path class="st86" d="M1267.1,983.1c35.9-7.1,71.7-14.3,107.5-22.1c0.1,1,0.2,1.9,0.4,2.9c-1.4,0.4-2.8,0.9-4.1,1.4
		c-14.8,3.5-29.7,6.3-44.5,9.8c-3.1,0.7-6.6,0.7-9.1,3l-0.1,0c-4.7-0.8-9.1,1.3-13.7,1.9c-7.4,1.6-14.8,3.4-22.2,4.7
		c-1.6,0.2-2.9,1.2-4.2,2l0,0c-3.2-0.3-7-0.5-9.5,1.9l-0.4,0.3c-4.2-1.4-8.4,0.5-12.5,1.2c-15.5,3.4-31.1,7-46.7,10
		c0.9-2,1.8-4.1,2.8-6.1c1.6,0.3,3.2-0.1,4.8-0.4c7.7-1.7,15.5-3,23.2-4.8C1248.3,987,1257.7,984.9,1267.1,983.1z"/>
	<path class="st8" d="M1326.4,975c14.8-3.4,29.7-6.2,44.5-9.8c1.6-0.2,3.1-0.3,4.7-0.4c3.5,9.6,4.3,20,6.8,29.9
		c0.8,5.1,3.1,10.2,2,15.4c-0.2-0.2-0.5-0.7-0.6-0.9l-0.1-0.2c-2.6-14.5-6-28.9-8.6-43.4c-6.7,1.2-13.4,2.7-20,4.3l-0.1,0
		c-12.6,2.4-25.1,5.5-37.7,8C1319.8,975.6,1323.2,975.7,1326.4,975z"/>
	<path class="st0" d="M1355.1,970c6.6-1.7,13.3-3.1,20-4.3c2.6,14.5,6,28.9,8.6,43.4c-1.6-2.4-2.2-5.1-2.4-7.9
		c-2.3-11.3-5.1-22.6-6.8-34.1c-4.1,0.8-8.3,0.9-12.2,2.4C1360,970.4,1357.5,970.1,1355.1,970z"/>
	<path class="st58" d="M1362.3,969.4c3.9-1.5,8.1-1.6,12.2-2.4c1.7,11.5,4.5,22.8,6.8,34.1c0.2,2.8,0.8,5.5,2.4,7.9l0.1,0.2
		c-1,5.6,1.3,10.9,2.3,16.3c1.5,6.3,0.7,12.8,0,19.1c-0.4,13.4-0.4,26.7-0.6,40.1c-1,8.7-0.6,17.4-1.1,26.1
		c-0.2,2.7-0.2,5.4,0.5,8.1c0.1,0.3,0.2,0.8,0.2,1.1c1.6-1.4,3.2-2.8,5-4c0.7,4-0.9,7.8-2,11.6c-1.4,4.2-2.1,8.6-3.9,12.7
		c-2.8,2.1-6.6,1.5-9.6,0.3c0.1-6.4,0.2-12.8,0-19.2c0.2-25.6,1.1-51.2,1.4-76.9c0.3-10.9,1.2-21.8,0.6-32.6
		c-3.2-7.5-7.8-14.3-11.6-21.6c-8.1,1.3-15.8,4.1-23.7,6c-16.8,4.6-33.7,9.1-50.4,13.9c-8.1,1.9-15.9,4.9-24.1,6.1
		c-4.5-0.5-8.7,1.4-13,2.6c-16,4.3-32.1,8.7-48.1,12.9c-4.5,1.3-8.7-1.3-12.5-3.5c1.9-3.1,3.7-6.2,4.9-9.5
		c2.9-5.2,5.6-10.4,8.8-15.4c3.3-1.7,7-2.3,10.6-3c42.6-9,85-18.5,127.6-27.6c3.2-0.8,6.9-0.7,9.5-3.1l0.1,0
		C1357.5,970.1,1360,970.4,1362.3,969.4z"/>
	<path class="st0" d="M1317.3,977.9c12.6-2.4,25.1-5.6,37.7-8c-2.6,2.4-6.3,2.2-9.5,3.1c-42.6,9.1-85,18.6-127.6,27.6
		c-3.6,0.7-7.4,1.3-10.6,3c-3.2,4.9-6,10.2-8.8,15.4l-0.2-1.6c3-5.1,6-10.2,8.8-15.4c20.1-4.3,40.2-8.6,60.3-13l0.4-0.3
		c3.2-0.4,6.4-1,9.5-1.9l0,0C1290.6,983.9,1303.9,981,1317.3,977.9L1317.3,977.9z"/>
	<path class="st8" d="M1303.6,979.9c4.6-0.7,9-2.7,13.7-1.9c-13.3,3-26.7,6-40.1,8.7c1.3-0.8,2.6-1.8,4.2-2
		C1288.8,983.3,1296.2,981.4,1303.6,979.9z"/>
	<path class="st8" d="M1267.7,988.6c2.5-2.5,6.2-2.3,9.5-1.9C1274,987.6,1270.9,988.2,1267.7,988.6z"/>
	<path class="st87" d="M1206.3,987c3.1,0.5,3.9,3.9,6.1,5.7c8.8-1.3,17.4-5.1,26.4-4c-7.7,1.8-15.5,3.1-23.2,4.8
		c-1.6,0.3-3.2,0.7-4.8,0.4C1209.3,991.7,1207.8,989.3,1206.3,987z"/>
	<path class="st11" d="M1341.5,996.5c7.9-1.9,15.6-4.8,23.7-6c3.7,7.2,8.3,14.1,11.6,21.6c0.5,10.8-0.3,21.7-0.6,32.6
		c-0.2,25.6-1.1,51.2-1.4,76.9c-0.3,6.7-0.2,13.4-0.4,20.1c-6.5-0.7-13,0.4-19.5,0.2c-29.2-0.2-58.3,0.1-87.5-0.2
		c-0.1-41.4,0.3-82.8-0.2-124.2l-0.1-0.9c8.2-1.3,16-4.2,24.1-6.1C1307.8,1005.5,1324.7,1001.1,1341.5,996.5z"/>
	<path class="st88" d="M1202.1,1007.2c1.3-2,2.2-4.8,4.9-5.3c-2.9,5.2-5.9,10.3-8.8,15.4l-0.8,1.1
		C1197.1,1014.1,1200.3,1010.8,1202.1,1007.2z"/>
	<path class="st33" d="M1383.8,1009.3c0.2,0.2,0.5,0.7,0.6,0.9l0.2,0.8c0.4,7.3,3.5,14.3,3.4,21.6c-0.5,19.7-1.5,39.3-1.6,59v0
		c-0.8,9-0.5,18.1-1.2,27.1l-0.3,0.3c-0.7-2.7-0.6-5.4-0.5-8.1c0.5-8.7,0.1-17.4,1.1-26.1c0.2-13.4,0.2-26.7,0.6-40.1
		c0.7-6.3,1.5-12.8,0-19.1C1385.1,1020.1,1382.8,1014.8,1383.8,1009.3z"/>
	<path class="st8" d="M1384.6,1011c2.9,2.5,2.1,7,3.2,10.4c2.8,9.3,1,19.1,1.1,28.6c0.2,12-1,23.9-1.2,35.9
		c-0.2,1.9,0.5,4.3-1.5,5.6c0.2-19.7,1.1-39.3,1.6-59C1388.1,1025.3,1385,1018.3,1384.6,1011z"/>
	<path class="st89" d="M1254,1019.1c4.2-1.2,8.5-3,13-2.6l0.1,0.9c-21.3,5.2-42.3,11.5-63.4,17c-4.2-0.2-7.8-3.2-11.6-4.7
		c0.1-0.5,0.3-1.6,0.4-2.2c1.3-2.8,2.9-5.4,4.4-8.1c0.1-0.2,0.4-0.7,0.6-1l0.8-1.1l0.2,1.6c-1.2,3.4-3,6.5-4.9,9.5
		c3.8,2.1,8,4.8,12.5,3.5C1222,1027.7,1238,1023.4,1254,1019.1z"/>
	<path class="st35" d="M1203.7,1034.4c21.2-5.5,42.2-11.8,63.4-17c-0.2,83.1,0.1,166.2-0.1,249.3l-0.8,1.2l-0.1-1.1
		c-0.9-6.7-0.2-13.5-0.3-20.2c-0.1-28.6-0.1-57.2,0-85.8c0.1-6.1-0.4-12.3,0.3-18.4c0.7-12.3,0.1-24.7,0.3-37
		c-0.1-29,0.2-58.1-0.2-87.1c-20.8,5.6-41.7,11.2-62.5,17c-4.6-0.5-8.6-3.5-12.8-5.3c0.1-0.1,0.2-0.3,0.2-0.3l0.9,0
		C1195.9,1031.3,1199.5,1034.2,1203.7,1034.4z"/>
	<path class="st2" d="M1267.1,1017.4c0.4,41.4,0.1,82.8,0.2,124.2v0.5c0,50.1-0.3,100.3,0.2,150.4c3.2-0.5,4.5-3.8,6.6-5.8
		c4.3-4.5,7.8-9.6,12.5-13.7c-3.5,4-7.1,7.8-10.4,12c-2.8,2.5-4.6,6.2-7.9,8.2c-0.2,0.7-0.5,2.1-0.6,2.8c-1.4-9.7-0.3-19.5-0.7-29.2
		C1267.3,1183.6,1266.9,1100.5,1267.1,1017.4z"/>
	<path class="st13" d="M1203.7,1035.3c20.8-5.8,41.6-11.4,62.5-17c0.4,29,0.1,58.1,0.2,87.1c-0.2,12.3,0.4,24.7-0.3,37
		c-49.3,0.2-98.7-0.2-147.9,0.2c-6.6,7.2-11.6,15.8-17.6,23.6c-3.1,3.6-4.9,8.5-9.1,11c16.3-22.4,32.2-45.1,48.6-67.5
		c3.2-0.9,4.7-4,5.1-7c5.1-7.3,10.4-14.5,15.7-21.8c4.7-6.1,8.1-13,12-19.6c6.1-10.4,11.8-21.1,18.2-31.3
		C1195.2,1031.8,1199.1,1034.8,1203.7,1035.3z"/>
	<path class="st90" d="M402.2,1019.5c0.2,0.4,0.5,1.2,0.7,1.6c0.4,0.8,0.7,1.7,1,2.5c1.1,6.7,0.4,13.6,1.7,20.3
		c1.6,8.1,1.1,16.4,2.6,24.5c1.4,7.1,0.4,14.3,1.6,21.4c-0.2,2-0.4,4.1-0.5,6.1c-0.5-4.3-0.8-8.5-1.3-12.8
		c-1.2-14.2-2.5-28.4-4.1-42.6c-0.1-1.4-0.2-2.8-0.4-4.2c-0.3-4.5-0.8-8.9-1.2-13.4C402.2,1022.1,402.2,1020.4,402.2,1019.5z"/>
	<path class="st91" d="M402.9,1021.1c6.2-0.3,12.6,0.8,18.6-1.2c0.2,0.5,0.5,1.6,0.7,2.2c0.1,1.3,0.2,2.6,0.3,4
		c-0.6-1.2-1-2.7-2.1-3.5c-5.5-0.4-11.1,0.2-16.5,1.1C403.6,1022.8,403.2,1022,402.9,1021.1z"/>
	<path class="st92" d="M1191.1,1028.8c-0.1-3.6,2.3-7.9,5.7-9.3c-1.5,2.7-3.1,5.3-4.4,8.1
		C1192.1,1027.9,1191.4,1028.5,1191.1,1028.8z"/>
	<path class="st93" d="M423.2,1020.5c3.1,31.1,6.1,62.3,9.4,93.4c0.1,0.9,0.3,2.7,0.4,3.7c-1,1.4-2.1,2.7-3.1,4.1
		c-1.3,1.2-2.4,2.4-3.3,3.9c-0.5,0.7-1.5,2-2,2.6c-1.2-2.1-2.3-4.2-3.4-6.3c-1.2-2.5-2.5-4.9-3.8-7.3c-1-2.1-2-4.1-3-6.2
		c-0.5-1.4-1.2-2.7-2.1-3.9c-1.4-2.6-2.8-5.4-2.9-8.4c0.1-2.1,0.3-4.1,0.5-6.1c1.7,3.7,0.4,8.2,2.6,11.7c4.2,7.8,7.8,15.9,12.3,23.6
		c2.4-2.8,5.4-5.3,6.8-8.7c-0.5-4.8-1.9-9.4-1.9-14.2c0.1-7.4-1.8-14.7-2.1-22.1c-0.2-5-0.7-9.9-1.5-14.8c-1.1-6.9-0.6-13.9-2-20.8
		c-1.2-6.1-0.9-12.2-1.5-18.4c-0.1-1.3-0.2-2.7-0.3-4L423.2,1020.5z"/>
	<path class="st4" d="M432.5,1021.2c111.4,0.2,222.8,0,334.3,0.1l1.2,0c16.2,0.2,32.4,0.1,48.6,0.1l0.6,0.3c-16-0.4-32,0-48-0.2
		c-102.5-0.2-205,0-307.5-0.1c-9.7,0.2-19.4-0.4-29.1,0.5L432.5,1021.2z"/>
	<path class="st94" d="M432.5,1021.9c9.7-0.9,19.4-0.3,29.1-0.5c102.5,0.1,205-0.1,307.5,0.1l-0.2,1.4c-0.5,0-1.6-0.1-2.1-0.1
		c-104.6,0-209.3,0.1-313.9,0c-6.8-0.3-13.7,0.6-20.4-0.4V1021.9z"/>
	<path class="st95" d="M769.1,1021.5c16,0.2,32-0.2,48,0.2l0.8,0.4l0.4,0.6l-1,0c-16.1,0.3-32.3,0-48.4,0.2L769.1,1021.5z"/>
	<path class="st96" d="M400.9,1023l1.3,0c0.4,4.5,0.9,8.9,1.2,13.4C400.8,1032.4,401.4,1027.5,400.9,1023z"/>
	<path class="st97" d="M403.9,1023.7c5.5-0.8,11-1.5,16.5-1.1c1.1,0.9,1.5,2.3,2.1,3.5c0.6,6.1,0.3,12.3,1.5,18.4
		c1.3,6.9,0.9,13.9,2,20.8c0.8,4.9,1.2,9.8,1.5,14.8c0.3,7.4,2.1,14.7,2.1,22.1c0,4.8,1.4,9.4,1.9,14.2c-1.4,3.4-4.4,6-6.8,8.7
		c-4.5-7.7-8.1-15.8-12.3-23.6c-2.2-3.6-0.9-8-2.6-11.7c-1.2-7.1-0.2-14.3-1.6-21.4c-1.5-8.1-1-16.4-2.6-24.5
		C404.2,1037.2,405,1030.4,403.9,1023.7z"/>
	<path class="st98" d="M432.5,1022.4c6.8,0.9,13.6,0.1,20.4,0.4c104.6,0.1,209.3,0,313.9,0c0.1,48.2,0.1,96.4,0,144.6
		c0.2,3-2.3,4.9-4.4,6.5c-3.2,1.6-6.7,2.9-8.8,6c-0.3,0.1-0.9,0.4-1.2,0.6c-3.7,0.1-6.7,2.4-9.8,4c-4.8,2.5-9.5,5-14.2,7.6
		c-1.4,0.6-2.2,1.9-3.1,3c-0.3,0.2-0.8,0.5-1.1,0.6c-4.5,0.3-8.2,3.2-12.1,5.1c-11.4,6.4-23,12.5-34.4,18.7c-1.8,0.8-3.4,2-4.4,3.8
		c-0.3,0.2-1,0.6-1.4,0.8c-3.7-0.2-6.7,2.2-9.8,3.7c-8.9,4.9-17.9,9.6-26.7,14.5c-1.1,0.6-1.8,1.5-2.3,2.8
		c-4.5,2.5-9.1,4.8-13.5,7.5c-2.4-1.6-4.9-2.9-7.6-3.7c-11.9-9.9-23.9-19.7-35.5-29.9c-1.4-2.1-3.2-3.8-5.5-4.6
		c-2.6-1.8-5-3.9-7.3-6c-0.6-2-1.9-3.6-3.6-4.7c-4.4-3.2-8.3-7-12.5-10.4c-1.1-1.1-2.7-1.4-4.1-1.8c-5.4-4.4-10.6-9-16-13.3
		c-1.8-1.7-3.6-3.3-5.5-4.9c0.7-2.4-1.9-4-4-3.2c-0.7-0.7-1.5-1.3-2.2-2c-1.3-3.7-4.8-5.7-7.6-8.1c-1.4-1.2-3.1-1.8-4.8-2.4
		c-0.8-0.6-1.7-1.1-2.4-1.7c-3.9-3.6-8.2-6.9-12.1-10.4c-0.9-2.8-3.2-4.6-5.4-6.4c-2.6-2-4.9-4.7-8.4-5.3l-0.1-0.1
		c-1.8-4.3-6.1-6.4-9.3-9.5c-3.1-2.6-5.8-6.2-10.1-6.8c-2.4-1.9-4.7-3.8-6.9-5.8c-0.8-3.5-4.2-5.1-7-6.8c-0.6-8.2-2.1-16.2-2.1-24.4
		c0.1-6.3-1.9-12.3-2.2-18.5c-0.2-6.7-2.3-13.1-2.3-19.8c-0.7-6.2-1.8-12.3-2.9-18.5C432.2,1023.3,432.4,1022.7,432.5,1022.4z"/>
	<path class="st99" d="M766.8,1022.8c0.5,0,1.5,0.1,2.1,0.1c-0.3,46,0,92-0.2,137.9c-0.1,3.2,0.2,6.3,0.5,9.5
		c-0.8,0.8-1.7,1.7-2.4,2.6c-0.8,0.4-1.7,0.8-2.5,1.2l-1.8-0.3c2.1-1.6,4.6-3.5,4.4-6.5C766.9,1119.2,766.9,1071,766.8,1022.8z"/>
	<path class="st45" d="M768.9,1022.9c16.1-0.2,32.3,0.1,48.4-0.2c0.5,6.6,0,13.3,1,19.8c0.9,12.3-0.3,24.6,1.1,36.9
		c0.3,10.5,0.1,21.1,1.3,31.6c-0.2,10.5,0.8,21-0.2,31.5c-11.8,6.5-23.3,13.5-35.4,19.5c-5.4,2.7-10.3,6.1-15.9,8.4
		c-0.3-3.2-0.6-6.3-0.5-9.5C768.9,1114.8,768.6,1068.9,768.9,1022.9z"/>
	<path class="st100" d="M817.3,1022.7l1,0l0.5,0.6c0.9,10.7,0.2,21.5,0.8,32.2c1.1,29,2,58,2.8,87c-17.4,11-36,20.1-54,30.1
		l-1.6,0.5c0.8-0.9,1.6-1.8,2.4-2.6c5.6-2.2,10.5-5.7,15.9-8.4c12-6.1,23.6-13,35.4-19.5c1-10.5,0-21,0.2-31.5
		c-1.3-10.5-1-21-1.3-31.6c-1.3-12.2-0.2-24.6-1.1-36.9C817.3,1035.9,817.8,1029.3,817.3,1022.7z"/>
	<path class="st101" d="M432.1,1023.6c1.1,6.1,2.2,12.3,2.9,18.5c0.1,6.7,2.2,13.1,2.3,19.8c0.3,6.2,2.2,12.2,2.2,18.5
		c0,8.2,1.5,16.3,2.1,24.4c2.8,1.7,6.1,3.3,7,6.8c-1-0.8-2.1-1.5-3.1-2.3c-1.1-1-2-2.2-3.4-2.7c-0.3,0.4-1,1.2-1.3,1.6l-0.7,1.1
		c-0.9-4.8-0.8-9.7-1.1-14.6c-0.3-11.4-1.9-22.7-3.4-34c-1.4-11.6-3-23.2-4.2-34.8L432.1,1023.6z"/>
	<path class="st102" d="M1191.1,1028.8c0.3-0.3,1-0.9,1.4-1.2c-0.1,0.5-0.3,1.6-0.4,2.2l-0.9,0L1191.1,1028.8z"/>
	<path class="st17" d="M340.1,1034.2c0-0.4,0.1-1.1,0.1-1.5c1.8,9.5,4.6,18.8,6.7,28.2c1.7,9.7,7.8,17.8,11.8,26.7
		c3.8,8.6,9,16.7,12.2,25.6c-7.1-15.3-15.1-30.1-22.4-45.3C345.5,1056.7,343,1045.4,340.1,1034.2z"/>
	<path class="st103" d="M403.8,1040.6c1.7,14.2,3,28.4,4.1,42.6c-2.8-4.4-2-9.7-2.4-14.6C404.9,1059.2,402.2,1049.9,403.8,1040.6z"
		/>
	<path class="st8" d="M1385.1,1118.7c0.8-9,0.4-18.1,1.2-27.1c1.9,7.4,0.5,15.2,0.5,22.8c3.7-3.8,6.4-8.4,10.1-12.2l0.5,1.1
		C1393.2,1108.3,1389.6,1113.9,1385.1,1118.7z"/>
	<path class="st11" d="M158,1248.4c0.1-51.4-0.2-102.8,0.2-154.1c51.3-0.1,102.6,0,153.9,0c0.1,51.3-0.1,102.6,0.1,154
		C260.8,1248.5,209.4,1248.1,158,1248.4z"/>
	<path class="st104" d="M1140,1109.8c1.6-2.4,3.3-4.8,5.1-7C1144.6,1105.8,1143.2,1108.9,1140,1109.8z"/>
	<path class="st105" d="M412.2,1104.3c0.8,1.2,1.5,2.5,2.1,3.9C411.8,1109,410.7,1106,412.2,1104.3z"/>
	<path class="st106" d="M442.2,1106.6c1.4,0.6,2.3,1.7,3.4,2.7c-1.7,0.4-3.4,0-4.7-1.1C441.2,1107.8,441.8,1107,442.2,1106.6z"/>
	<path class="st107" d="M417.3,1114.4c1.3,2.4,2.6,4.8,3.8,7.3C417.8,1120.8,417,1117.4,417.3,1114.4z"/>
	<path class="st108" d="M455.5,1117.4c4.3,0.5,7,4.2,10.1,6.8c3.2,3.1,7.5,5.2,9.3,9.5C468.3,1128.5,461.9,1123,455.5,1117.4z"/>
	<path class="st109" d="M426.4,1125.5c0.9-1.4,2.1-2.7,3.3-3.9C430.9,1123.9,428.9,1126.5,426.4,1125.5z"/>
	<path class="st110" d="M475.1,1133.8c3.4,0.6,5.7,3.3,8.4,5.3c2.2,1.8,4.6,3.5,5.4,6.4C484.2,1141.7,479.4,1137.9,475.1,1133.8z"/>
	<path class="st45" d="M1118.1,1142.7c49.3-0.4,98.6,0,147.9-0.2c-0.7,6.1-0.2,12.2-0.3,18.4c-0.1,28.6-0.1,57.2,0,85.8
		c0.1,6.7-0.6,13.5,0.3,20.2c-14.8-1.7-29.6-4-44.4-5.9c-4.7-2.9-10.4-2.4-15.7-3.2c-9.3-1.7-18.8-2.4-28.2-4
		c-5.8,0.1-11.4-3.1-17.1-1.5c-12.9-1.7-25.8-3-38.6-5.3c-10.1-18.7-21.4-36.8-31.6-55.5c-1.4-2.5-2.8-5-4.3-7.4
		c1.7-2.3,3.4-4.7,5.3-6.9c4.2-2.5,6.1-7.3,9.1-11C1106.4,1158.5,1111.5,1149.9,1118.1,1142.7z"/>
	<path class="st24" d="M1267.3,1142.1c30.9-0.2,61.9,0,92.8-0.1c4.7-0.1,9.5-0.6,14.3,0.2c-0.2,0.3-0.6,0.9-0.8,1.2
		c-2.9,1.3-4,4.3-5.5,6.8c-16.8,28.5-33.7,56.9-50.4,85.4c-4.3,5.8-9.7,10.6-14.2,16.3c-2.6,3.4-6.8,6.1-7.4,10.7
		c-0.6,0.6-1.2,1.2-1.7,1.8c-2.6,2.1-4.9,4.7-6.7,7.5c-0.2,0.3-0.7,0.8-0.9,1.1c-4.7,4.1-8.2,9.2-12.5,13.7c-2.1,2-3.4,5.3-6.6,5.8
		C1266.9,1242.4,1267.3,1192.2,1267.3,1142.1z"/>
	<path class="st8" d="M1374.3,1142.2c3.3,0.3,6.7,0.2,10.1,0.2c-0.8,2.5-1.7,4.9-3,7.2c-0.2-1.7-0.1-3.4,0.1-5.1
		c-2-0.2-4.1-0.7-6.1-0.2c-5.4,4.9-6.7,13.1-12.5,17.7c3.2-6.4,7.4-12.2,10.5-18.6C1373.7,1143.1,1374.1,1142.5,1374.3,1142.2z"/>
	<path class="st111" d="M1368,1150.2c1.5-2.6,2.6-5.5,5.5-6.8c-3.2,6.4-7.3,12.3-10.5,18.6c-0.3,0.5-0.9,1.4-1.3,1.9
		c-1.2,1.6-2.2,3.3-3,5.1c-1,1.7-2.1,3.4-3,5.2c-11.8,19.7-23.5,39.5-35,59.4c-1.5,2.4-3.2,4.7-5,6.9c-4.8,5-9.2,10.3-13.7,15.5
		c-2,2.2-3.9,4.4-5.9,6.5c0.6-4.6,4.7-7.3,7.4-10.7c4.5-5.6,9.9-10.5,14.2-16.3C1334.3,1207.1,1351.1,1178.7,1368,1150.2z"/>
	<path class="st38" d="M829.7,1148.8c2-1.3,4.3,0.3,6.3,0.7c29,9.8,58.2,19.1,87.3,28.9c10.9,4,22.6,5.5,33.8,8.4
		c12.3,2.5,24.5,5.3,36.8,8c23.9,5.4,47.9,10.2,71.7,15.8c1.9-0.8,3-2.7,4.4-4.1c0,0.3-0.1,0.8-0.2,1.1c-0.9,1.2-1.8,2.3-2.7,3.5
		c-0.8,0.1-2.3,0.4-3,0.6c4.9,23.7,13.6,46.7,16.8,70.8c4.1,23.3,7.7,46.6,11.6,69.9c-9.5,0.2-19-0.1-28.6,0.2
		c-4.5-30.4-8.4-60.8-13-91.2c-3.7-2.3-8.3-2.3-12.4-3.2c-3-1.2-6.2-1.8-9.4-2c-49.3-11.9-98.7-23.7-148-35.5
		c-21.4-5.4-43.1-9.8-64.3-15.8c-10.4,4.9-20.2,10.7-30.6,15.6c-9.8,4.6-19.5,9.6-28.9,15.1c-17.5,9.2-35.1,18.1-52.6,27.3
		c-7.3,2.8-13.9,6.9-20.9,10.3c-14.1,7.4-28.3,14.8-42.6,22c-0.4,0.2-1.3,0.5-1.7,0.7c-5.4-11.5-10.8-22.9-15.6-34.6
		c3.2-1.6,6.4-3.2,9.5-4.9c17.2-9.7,34.8-18.6,52.2-28.1c37.7-20.3,75.4-40.6,113.1-60.8C809.4,1162,819.5,1155.3,829.7,1148.8
		 M830.4,1162.4c-0.9,3.4-1.4,6.8-1.9,10.2c4.1,0.9,8.2,2.1,12.3,2.8l0.3,0.3c8.9,2.3,17.9,4.4,26.8,6.6c7.7,1.6,15.2,4.3,22.9,5.3
		c0.5,0.2,1.5,0.6,2.1,0.8c20.4,5.2,40.8,10,61.2,15.2l-1.6,0.4c0.8,1.6,2.8,1.4,4.2,2c5.8,1.7,11.7,2.5,17.5,4.2
		c6,1.1,11.7,3.7,17.8,3.9l-0.3-1.2c14.4,3.5,28.8,7.1,43.2,10.6c1.7,0.4,3.6,0.9,5.3,1.4c1.5-1.4,3-2.8,4.5-4.3
		c1.3-0.7,2.3-1.8,3.5-2.7c1.2-1.2,2.5-2.3,3.6-3.6c-1-0.1-3.1-0.4-4.2-0.6l0.5-0.2c-21.9-5.4-43.7-11.4-65.6-16.4
		c-9.7-2.6-19.4-5.1-29.2-7.4l0.4-0.2c-29.7-7.2-59.1-15.3-88.9-22.3c-8.8-2.6-17.8-4.5-26.6-7c-2.5-0.7-5-1.3-7.5-1.8
		C830.6,1159.8,830.2,1161.1,830.4,1162.4z"/>
	<path class="st112" d="M501,1155.8c0.8,0.6,1.6,1.1,2.4,1.7c1.1,1.1,2.2,2.2,3.3,3.3C503.8,1160.7,501.8,1158.6,501,1155.8z"/>
	<path class="st113" d="M503.5,1157.5c1.7,0.5,3.5,1.1,4.8,2.4c2.8,2.4,6.3,4.4,7.6,8.1c-3.2-2.2-6.1-4.8-9.1-7.2
		C505.7,1159.7,504.6,1158.6,503.5,1157.5z"/>
	<path class="st41" d="M830.4,1162.4c-0.2-1.3,0.2-2.7,0.4-3.9c2.5,0.4,5,1,7.5,1.8c-0.1,0.3-0.2,0.9-0.3,1.3c9,1.9,17.7,5.4,27,5.7
		c29.7,6.9,59.2,15.1,88.9,22.3l-0.4,0.2c-0.4,0.2-1.2,0.7-1.6,1c10.4,1.4,20.2,6.6,30.8,6.4c21.9,5.1,43.7,11.1,65.6,16.4l-0.5,0.2
		c-0.3,0.1-0.8,0.2-1.1,0.3c0.5,1.3,1,2.6,1.6,3.9c-1.2,0.9-2.2,2-3.5,2.7c-3.3,1-6.5,2.2-9.8,2.9c-14.4-3.5-28.8-7.1-43.2-10.6
		c-12.5-3.1-25.1-6.2-37.6-9.3c-20.4-5.2-40.8-10-61.2-15.2c0.5-0.2,1.4-0.5,1.9-0.7c-0.3-1.9-3-0.9-4-0.1c-7.7-1-15.3-3.7-22.9-5.3
		c-8.9-2.2-17.9-4.3-26.8-6.6l-0.3-0.3c-2.4-3.2-6.9-2.7-10.3-3.9C831,1168.5,831.1,1165.4,830.4,1162.4z"/>
	<path class="st3" d="M838,1161.5c0.1-0.3,0.3-0.9,0.3-1.3c8.8,2.5,17.8,4.4,26.6,7C855.7,1166.9,847,1163.4,838,1161.5z"/>
	<path class="st114" d="M1373,1162.9c0.5-0.2,1.6-0.7,2.1-1c-3.7,7.1-7.3,14.3-11,21.4l-0.7-1.1
		C1365.8,1175.4,1369.4,1169.1,1373,1162.9z"/>
	<path class="st115" d="M830.4,1162.4c0.7,3,0.6,6.1,0.1,9.1c3.4,1.3,7.9,0.7,10.3,3.9c-4.2-0.7-8.2-2-12.3-2.8
		C829,1169.2,829.5,1165.8,830.4,1162.4z"/>
	<path class="st116" d="M1358.6,1169c0.8-1.8,1.8-3.5,3-5.1C1362.8,1166.2,1361.6,1169.5,1358.6,1169z"/>
	<path class="st117" d="M518.1,1170c2.1-0.8,4.7,0.8,4,3.2c-0.4-0.1-1.1-0.3-1.5-0.4C519.7,1171.8,518.9,1170.8,518.1,1170z"/>
	<path class="st118" d="M520.6,1172.7c0.4,0.1,1.1,0.3,1.5,0.4c1.9,1.5,3.7,3.2,5.5,4.9C524.2,1178.1,522,1175.5,520.6,1172.7z"/>
	<path class="st119" d="M764.3,1174.2c0.8-0.4,1.6-0.8,2.5-1.2l1.6-0.5c-2.9,3.8-7.6,5.3-11.5,7.6c-2.1,1.3-4.5,2-6.9,2.2
		c0.6-0.5,1.9-1.4,2.5-1.9c0.3-0.1,0.9-0.4,1.2-0.6C757.4,1178.3,760.9,1176.2,764.3,1174.2z"/>
	<path class="st120" d="M753.7,1179.8c2.1-3.1,5.6-4.4,8.8-6l1.8,0.3C760.9,1176.2,757.4,1178.3,753.7,1179.8z"/>
	<path class="st121" d="M1320.6,1233.6c11.5-19.9,23.2-39.7,35-59.4c0.1,2.8-1.4,5.3-2.8,7.6c-8.2,14.2-16.9,28.2-24.9,42.6
		C1325.7,1227.6,1324.4,1231.9,1320.6,1233.6z"/>
	<path class="st122" d="M742.7,1184.4c3.1-1.6,6.1-3.9,9.8-4c-0.6,0.5-1.9,1.4-2.5,1.9c-6,3-11.9,6.2-17.7,9.6
		c-2.2,1.1-4.5,2.1-6.8,3.2c0.9-1.1,1.7-2.4,3.1-3C733.2,1189.4,737.9,1186.9,742.7,1184.4z"/>
	<path class="st63" d="M1070,1206.5c5.2-7.5,10.5-15,16-22.3c1.5,2.4,3,4.9,4.3,7.4c10.2,18.7,21.5,36.7,31.6,55.5
		c12.8,2.3,25.7,3.6,38.6,5.3c6.5,2.3,13.6,2,20.3,3.5c11.9,1.5,23.8,3.2,35.7,5c1.7,0.1,3.3,0.2,5,0.2c14.8,1.9,29.6,4.2,44.4,5.9
		l0.1,1.1c0,9.6-0.1,19.2,0.2,28.8c-5.2,6.2-10.7,12.3-16.1,18.3c-2.3,2.6-4.9,5-6.3,8.3c5.3-1.3,9.8-4.5,15-5.9
		c-20.1,9.1-40,18.6-60.1,27.6c-5.5,2.2-10.6,5.6-16.6,6.4c-26.6,4.7-53,10.5-79.6,15.4c-0.2-0.9-0.5-1.9-0.7-2.8
		c-0.6-3.7-0.9-7.5-1.5-11.2c-3.5-27.8-6.7-55.6-10-83.4c-0.2-8-3.9-15.3-6.3-22.7c-4.9-13-9.2-26.2-14.4-39.1
		C1069.9,1207.3,1070,1206.8,1070,1206.5z"/>
	<path class="st123" d="M890.8,1187.6c1-0.7,3.7-1.7,4,0.1c-0.5,0.2-1.4,0.5-1.9,0.7C892.4,1188.3,891.3,1187.9,890.8,1187.6z"/>
	<path class="st3" d="M951.8,1190.7c0.4-0.2,1.2-0.7,1.6-1c9.8,2.3,19.5,4.8,29.2,7.4C972,1197.3,962.3,1192.1,951.8,1190.7z"/>
	<path class="st124" d="M543.6,1191.3c1.4,0.4,3,0.7,4.1,1.8c4.2,3.5,8.1,7.2,12.5,10.4c1.7,1.1,3,2.7,3.6,4.7
		c-3.1-2.3-6.1-4.9-9.1-7.3c-1.9-1.7-3.9-3.4-5.9-5C547,1194.4,545.3,1192.9,543.6,1191.3z"/>
	<path class="st125" d="M725.4,1195.1c2.3-1.1,4.5-2.1,6.8-3.2c-1.5,3.2-5.3,3.8-8,5.7c-5.4,2.8-10.5,6.5-16.6,7.6
		c5.4-3.4,11.3-5.9,16.7-9.4C724.6,1195.5,725.2,1195.2,725.4,1195.1z"/>
	<path class="st126" d="M712.2,1200.8c3.9-1.9,7.6-4.8,12.1-5.1c-5.4,3.5-11.3,6-16.7,9.4c-0.4,0.2-1.1,0.6-1.5,0.8
		c-2.4,1.1-4.7,2.4-7,3.7c-8.6,4.5-17,9.4-25.7,13.6c0.9-1.8,2.5-3,4.4-3.8C689.3,1213.2,700.8,1207.2,712.2,1200.8z"/>
	<path class="st127" d="M548.8,1196c2,1.6,4,3.2,5.9,5C551.6,1201,549.6,1198.8,548.8,1196z"/>
	<path class="st30" d="M786.2,1220.5c10.3-4.9,20.2-10.7,30.6-15.6c21.2,6,42.9,10.4,64.3,15.8c49.4,11.8,98.7,23.6,148,35.5
		c-4.5,0.1-8.8-1.6-13.1-2.6c-14.7-3-29-7.4-43.7-10.4c-15.5-4-31.1-7.5-46.6-11.4c-5.3-0.9-10.5-2.1-15.6-3.7
		c-24.6-5.7-49.1-11.9-73.7-17.4c-6.5-1.5-12.9-3.5-19.4-4.8c-5.9,1.5-10.4,6-16.1,8C795.7,1215.8,791.7,1220,786.2,1220.5z"/>
	<path class="st128" d="M952.5,1204.1l1.6-0.4c12.6,3,25.1,6.2,37.6,9.3l0.3,1.2c-6.1-0.2-11.8-2.8-17.8-3.9
		c-5.8-1.7-11.7-2.6-17.5-4.2C955.2,1205.5,953.3,1205.6,952.5,1204.1z"/>
	<path class="st129" d="M699.2,1209.7c2.3-1.3,4.6-2.6,7-3.7C705,1208.9,702,1209.5,699.2,1209.7z"/>
	<path class="st19" d="M800.8,1214c5.7-2.1,10.2-6.5,16.1-8c6.5,1.3,12.9,3.3,19.4,4.8c24.6,5.5,49.1,11.7,73.7,17.4
		c5.1,1.6,10.3,2.8,15.6,3.7c15.5,3.9,31.1,7.4,46.6,11.4c14.7,3,29,7.4,43.7,10.4c4.3,1,8.6,2.7,13.1,2.6c3.2,0.2,6.4,0.8,9.4,2
		c3.4,2,7.2,2.7,11,3.7c2.8,11.8,3.7,23.8,5.6,35.7c1.5,12.2,3.4,24.3,5,36.5c0.7,5.7,2.1,11.3,2.1,17c-25.2,0.5-50.5,0.1-75.7,0.2
		c-83.7,0-167.3,0-251,0c-4.8-0.2-9.4-1.8-14-2.9c-21.3-6.1-43-10.6-64.1-17.3c-4.1-5.5-5.8-12.3-8.9-18.3
		c-2.4-5.9-5.9-11.4-7.3-17.7c14.3-7.2,28.4-14.6,42.6-22c7-3.4,13.6-7.5,20.9-10.3c4.1-1.1,7.7-3.5,11.6-5.3
		c10.7-5.6,21.5-10.9,32.1-16.7c3.1-1.6,6.4-3,8.9-5.4c9.4-5.5,19.1-10.5,28.9-15.1C791.7,1220,795.7,1215.8,800.8,1214z"/>
	<path class="st5" d="M1067.1,1211.1c0.9-1.2,1.8-2.3,2.7-3.5c5.1,12.9,9.5,26.1,14.4,39.1c2.5,7.4,6.1,14.7,6.3,22.7
		c3.3,27.8,6.5,55.6,10,83.4c-2.7-0.2-5.4-0.3-8.1-0.5c-3.9-23.3-7.5-46.7-11.6-69.9c-3.2-24.1-11.8-47.1-16.8-70.8
		C1064.8,1211.5,1066.3,1211.2,1067.1,1211.1z"/>
	<path class="st4" d="M571.1,1214.3c2.3,0.9,4.2,2.6,5.5,4.6C574.8,1217.4,572.9,1215.8,571.1,1214.3z"/>
	<path class="st130" d="M1046.7,1214.1c0.3-0.1,0.8-0.2,1.1-0.3c1,0.2,3.1,0.5,4.2,0.6c-1.1,1.3-2.4,2.4-3.6,3.6
		C1047.7,1216.6,1047.2,1215.3,1046.7,1214.1z"/>
	<path class="st131" d="M1034.9,1223.5c3.3-0.7,6.6-1.9,9.8-2.9c-1.4,1.5-3,2.9-4.5,4.3C1038.5,1224.4,1036.7,1224,1034.9,1223.5z"
		/>
	<path class="st132" d="M662.3,1227.8c3.1-1.5,6.1-3.9,9.8-3.7c-6.6,4-13.5,7.3-20.2,11.2c-2.4,1.2-4.8,2.5-7.2,3.8
		c-3.8,2-7.6,4.2-11.5,6c0.4-1.2,1.2-2.1,2.3-2.8C644.4,1237.5,653.4,1232.8,662.3,1227.8z"/>
	<path class="st133" d="M644.7,1239.1c2.3-1.4,4.7-2.7,7.2-3.8C650.8,1238.3,647.6,1239,644.7,1239.1z"/>
	<path class="st30" d="M704.7,1263c17.5-9.2,35.1-18.2,52.6-27.3c-2.6,2.4-5.9,3.8-8.9,5.4c-10.6,5.8-21.4,11-32.1,16.7
		C712.4,1259.5,708.8,1261.9,704.7,1263z"/>
	<path class="st134" d="M1325.6,1246.5c-0.4-4.3,3.7-7.1,6.3-9.9l0.4,1.3C1330.2,1240.8,1327.9,1243.7,1325.6,1246.5z"/>
	<path class="st135" d="M1302,1256.1c4.5-5.2,8.9-10.5,13.7-15.5c-0.5,4.3-4.6,6.7-6.9,10.1
		C1306.7,1252.6,1305.1,1255.9,1302,1256.1z"/>
	<path class="st136" d="M612.1,1248.8c2.7,0.9,5.2,2.2,7.6,3.7c-0.5,0.3-1.4,0.9-1.9,1.1C615.8,1252.3,614,1250.6,612.1,1248.8z"/>
	<path class="st137" d="M1160.6,1252.4c5.8-1.6,11.3,1.6,17.1,1.5c9.4,1.6,18.8,2.2,28.2,4c5.3,0.8,11,0.2,15.7,3.2
		c-1.7,0-3.3-0.1-5-0.2c-11.9-1.8-23.7-3.4-35.7-5C1174.2,1254.4,1167.2,1254.7,1160.6,1252.4z"/>
	<path class="st138" d="M1038.5,1258.3c4.1,0.9,8.7,0.9,12.4,3.2c4.6,30.3,8.5,60.8,13,91.2c-26.5,0.5-53.1,0-79.7,0.2
		c-82.9,0-165.8,0-248.7,0c-5.9,0.2-11.4-2.2-17-3.6c-3.7-1.1-7.8-0.9-11.3-2.6c-4.9-2.1-10.3-2.3-15.3-4.2
		c-8.6-3-17.7-4.2-26.3-7.1c-3-0.9-6-1.3-9.1-1.9c-5.7-12.5-11.4-25-17-37.5c0.4-0.2,1.3-0.5,1.7-0.7c1.4,6.3,4.9,11.8,7.3,17.7
		c3.1,6,4.9,12.8,8.9,18.3c21.1,6.6,42.8,11.2,64.1,17.3c4.6,1.1,9.2,2.7,14,2.9c83.7,0,167.3,0,251,0c25.2-0.2,50.5,0.3,75.7-0.2
		c-0.1-5.7-1.5-11.3-2.1-17c-1.5-12.2-3.5-24.3-5-36.5c-1.9-11.9-2.8-24-5.6-35.7C1045.7,1261,1041.9,1260.2,1038.5,1258.3z"/>
	<path class="st2" d="M1287.6,1271.9c1.9-2.8,4.1-5.4,6.7-7.5C1292,1266.8,1289.8,1269.3,1287.6,1271.9z"/>
	<path class="st8" d="M1268.4,1293.1c3.3-1.9,5.1-5.6,7.9-8.2c-0.8,4.9-5.2,8.2-8.4,11.7l-0.1-0.7
		C1267.9,1295.2,1268.2,1293.8,1268.4,1293.1z"/>
	<path class="st139" d="M656.4,1333.5c3,0.6,6.1,1,9.1,1.9c8.6,2.9,17.7,4.1,26.3,7.1c5,1.8,10.4,2,15.3,4.2
		c3.6,1.7,7.6,1.5,11.3,2.6c5.6,1.4,11.1,3.8,17,3.6c82.9,0,165.8,0,248.7,0c26.6-0.2,53.1,0.3,79.7-0.2c9.5-0.3,19,0,28.6-0.2
		c0.4,6,2,11.8,2.6,17.7c-0.1,0.6-0.2,1.7-0.3,2.2c-23.6,14.4-46.4,29.9-70.2,43.9c-33.7,12-67.7,23.4-101.4,35.4
		c-2.7,1-5.6,1.3-8.4,0.8c-58.7-9.5-117.3-19.1-176-28.6c-1.7-0.3-3.4-0.6-4.6-1.9c-21.4-20.2-42.9-40.5-64.2-60.8
		C664.2,1352.6,661,1342.6,656.4,1333.5z"/>
	<path class="st140" d="M238.1,1349.5c95.4,0.2,190.8,0.8,286.2,1.1l-0.1-0.6l0.2,0.2c2.3,2.3,4.7,4.4,7.1,6.6
		c2.1,4,5.5,8.6,10.3,9.2c3.1,2.9,6.5,5.3,10.2,7.5c3.9,3.3,8.5,5.9,13.4,7.5c6.2,2.9,11.9,6.7,18,9.7c8.8,5.1,17.7,10.1,26.6,14.9
		c2.6,1.5,5.2,3,7.8,4.6c-3,1.1-6.2,0.7-9.3,0.8c-40.6-0.1-81.2,0-121.9,0c1.3,3.2,4.6,4.8,7,7c29,25.4,58.6,50,88.1,74.8
		c19.1,15.7,38.4,31.1,57.7,46.6c5,4.4,11,7.6,15.2,12.8c-11.7,0.7-23.5,0.1-35.3,0.3c-53,0.1-106-0.1-159,0.1
		c-11-10.8-23-20.4-33.7-31.5c34.2-0.4,68.4,0.1,102.5-0.2c-1.7-3.1-4.9-5-7.3-7.5c-6.9-6.9-13.8-13.7-20.7-20.5
		c-7.7-7.5-15-15.5-23.3-22.4c-6.2-6.1-12.2-12.4-18.5-18.3c-8.2-8.5-17.4-15.9-25.4-24.6c-2.3-2.2-4.3-5.5-8-5.3
		c-31.9,0-63.8,0-95.7,0c-4.3-0.1-8.6,0.6-12.8-0.6c-14.4-12.6-28.2-25.8-42.4-38.5C262.7,1372,250.2,1361,238.1,1349.5z"/>
	<path class="st141" d="M524.3,1350.3c3.3-0.5,4.9,3,7.2,4.7c6.7,5.2,12.2,12.1,19.6,16.4c8.2,3.9,15.7,9.1,23.8,13.1
		c2.9,1.9,6.9,2.8,8.3,6.3c-6.1-3-11.8-6.8-18-9.7c-4.5-2.4-8.9-5-13.4-7.5c-3.6-2.2-7.1-4.6-10.2-7.5c-3.3-3.2-6.8-6.3-10.3-9.2
		C529.1,1354.6,526.6,1352.6,524.3,1350.3z"/>
	<path class="st8" d="M1092.4,1352.4c2.7,0.1,5.4,0.3,8.1,0.5c0.6,3.7,0.9,7.5,1.5,11.2c0,3.7-3.6,6-7,6
		C1094.4,1364.2,1092.8,1358.4,1092.4,1352.4z"/>
	<path class="st11" d="M1220.9,1353.7l0.1-0.1c60.5,0.1,121,0.4,181.5,0.5c51.4,0.6,102.8,0.4,154.2,0.7c-0.7,1.8-2.4,3-3.7,4.4
		c-17,17-34,34-51.1,51.1c-4,3.9-7.8,8-12,11.7l-0.5,0c-5-0.8-10.1-0.6-15.2-0.5c-30.8,0-61.6-0.1-92.3,0c-4.7-0.5-7.5,3.9-9.5,7.4
		c-0.2,0.2-0.6,0.5-0.8,0.7c-3.8,0.2-5.8,3.7-8.3,6.1c-2.7,3-6.6,5.2-7.5,9.3c-9.9,9.6-19.7,19.4-29.6,29c-4.1,0.4-7.7,4.1-8.3,8.1
		c-9.3,8.6-18.2,17.6-27.2,26.5c-3.9,4.2-8.9,7.5-12,12.5c37.4,0.3,74.8,0.1,112.2,0.1c-10.3,11.1-21.6,21.3-31.9,32.4
		c-60.8,0.2-121.6,0-182.4,0.1c-11.8-0.2-23.7,0.4-35.5-0.2c12.1-13.1,25.2-25.3,37.7-38.2c32.8-32.8,65.5-65.5,98.3-98.3
		c1.7-1.9,4.1-3.4,4.9-5.9l-0.3-1c-46.5-0.5-93.1-0.1-139.6-0.3c0.1-0.7,0.3-2,0.4-2.7c0.6-0.4,1.3-0.7,2-1c3.4-0.5,6.1-2.7,9-4.4
		c1.9-1.3,4.3-2.1,5.3-4.3c1.4-1.1,3-2.1,4.6-2.9c4.3-1.1,7.8-3.8,11.6-6c5.2-3.2,10.4-6.3,15.6-9.5c2.7-1.7,5.6-3,7.6-5.6
		c1.3-1.1,2.6-2.1,4-3c1.8-0.6,3.5-1.7,4.8-3.1c3.7-3.7,8.4-6.3,11.1-10.8C1218.9,1355.5,1219.9,1354.6,1220.9,1353.7z"/>
	<path class="st9" d="M1202.1,1370.4c5.3-4.7,10.7-9.2,15.9-13.9c-2.7,4.5-7.5,7.2-11.1,10.8
		C1205.6,1368.7,1204,1369.8,1202.1,1370.4z"/>
	<path class="st142" d="M531.4,1356.9c3.5,2.9,7,6,10.3,9.2C536.9,1365.5,533.5,1360.9,531.4,1356.9z"/>
	<path class="st41" d="M551.9,1373.5c4.5,2.5,8.9,5.1,13.4,7.5C560.4,1379.5,555.8,1376.9,551.9,1373.5z"/>
	<path class="st9" d="M1163.4,1394.4c11.7-6.9,23.2-14,34.8-21c-2,2.5-5,3.9-7.6,5.6c-5.2,3.2-10.4,6.3-15.6,9.5
		C1171.2,1390.6,1167.6,1393.3,1163.4,1394.4z"/>
	<path class="st9" d="M1144.5,1406c4.8-2.9,9.5-5.7,14.2-8.7c-1,2.2-3.4,3-5.3,4.3C1150.6,1403.2,1147.9,1405.5,1144.5,1406z"/>
	<path class="st143" d="M609.9,1405.7c1.8,0,3.8,0.1,5.3,1.3c8.2,5.1,16.9,9.3,25,14.4c5.5,3,10.8,6.4,16.9,8
		c21.1,7,42.3,13.8,63.4,21c12.3,4.7,25.5,5.5,38.2,8.6c11.8,2.4,23.7,3.9,35.5,6.8c13.7,2,27.2,6.1,41.2,6.1
		c10.8,1.2,21.7,0.4,32.6,0.8c15.6,0,31.2,0.5,46.8,1c4.5-0.9,7.6-5.5,12.6-5.2c-3.1,2.1-6.4,3.8-9.3,6.2c-4.3,0.9-8.8,0.4-13.1,0.3
		c-18.8-0.4-37.7-0.8-56.5-1.3c-10.2-0.5-20.6,0.4-30.6-2c-27.4-5.3-54.8-10.6-82.3-15.8c-8.9-1.3-17.2-5-25.8-7.6
		c-19.3-6.4-38.6-12.7-57.9-19.2c-11.1-5.5-21.6-12.3-32.7-17.9c-0.5-0.4-1-0.7-1.4-1C615.1,1408.7,612.5,1407.3,609.9,1405.7z"/>
	<path class="st144" d="M1137.3,1410.1c1.7-1.1,3.5-2.2,5.3-3.1c-0.1,0.7-0.3,2-0.4,2.7c46.5,0.2,93.1-0.2,139.6,0.3l0.3,1
		c-48.4,0.1-96.8-0.2-145.2,0.1L1137.3,1410.1z"/>
	<path class="st145" d="M617.7,1410.3c0.5,0.3,1,0.6,1.4,1c2.1,3.7,6.4,5,9.8,7.1c9.8,5.1,18.9,11.8,29.8,14.7
		c9.4,2.6,18.4,6.8,27.9,9c11.4,4,22.8,7.6,34.3,11.4c12,4.3,24.8,5.7,37.3,8.2c11.9,2.5,23.9,4.7,35.9,6.8
		c8.2,2.1,16.5,3.5,24.8,5.1c7.6,1.8,15.4,0.8,23,1.2c9.1-0.2,18,1.2,27.1,0.9c14.1,0.8,28.2,0.3,42.4,0.6c2.3-0.1,4.9,0.3,6.6-1.7
		c2.9-2.4,6.2-4.1,9.3-6.2c1.3-0.7,2.5-1.4,3.8-2.1c2.8,1.3,5.2,4,8.5,3.7c6.5,0,13-0.1,19.6-0.1c7.5,0.3,14.5-2.7,21.8-4
		c16.6-4.2,33.3-7.6,49.8-12c30.5-11.8,60.9-23.9,91.4-35.7c5.4-2,10-5.5,14.9-8.3l-0.4,1c48.4-0.3,96.8,0,145.2-0.1
		c-0.9,2.5-3.2,4-4.9,5.9c-32.8,32.8-65.5,65.5-98.3,98.3c-12.5,12.8-25.6,25-37.7,38.2l-0.7,0.3c-161,0-322,0-483.1,0
		c-63-0.3-126.1-0.1-189.1-0.1c-2.6-0.3-5.6,0.7-8-0.8c53-0.2,106,0,159-0.1c11.8-0.2,23.5,0.4,35.3-0.3
		c-4.2-5.2-10.2-8.4-15.2-12.8c-19.2-15.5-38.6-30.9-57.7-46.6c-29.5-24.8-59.2-49.4-88.1-74.8c-2.5-2.2-5.7-3.8-7-7
		c40.6,0,81.2,0,121.9,0C611.5,1411,614.7,1411.4,617.7,1410.3z"/>
	<path class="st146" d="M619.1,1411.3c11,5.7,21.5,12.5,32.7,17.9c19.2,6.5,38.6,12.8,57.9,19.2c8.6,2.6,16.9,6.3,25.8,7.6
		c27.4,5.2,54.9,10.5,82.3,15.8c10,2.4,20.4,1.5,30.6,2c18.8,0.6,37.7,0.9,56.5,1.3c4.4,0.1,8.8,0.6,13.1-0.3
		c-1.7,1.9-4.3,1.6-6.6,1.7c-14.1-0.3-28.3,0.2-42.4-0.6c-9.1,0.2-18.1-1.2-27.1-0.9c-7.7-0.5-15.5,0.6-23-1.2
		c-8.3-1.7-16.6-3-24.8-5.1c-12-2.1-24-4.2-35.9-6.8c-12.5-2.5-25.3-3.9-37.3-8.2c-11.5-3.7-23-7.3-34.3-11.4
		c-9.5-2.2-18.5-6.4-27.9-9c-10.8-3-19.9-9.6-29.8-14.7C625.5,1416.2,621.2,1415,619.1,1411.3z"/>
	<path class="st19" d="M317.3,1421.9c4.2,1.1,8.6,0.5,12.8,0.6c31.9,0,63.8,0,95.7,0c3.6-0.2,5.7,3.1,8,5.3
		c8,8.7,17.1,16.2,25.4,24.6c6.3,6,12.3,12.3,18.5,18.3c8.3,6.9,15.6,14.9,23.3,22.4c6.9,6.8,13.8,13.7,20.7,20.5
		c2.5,2.5,5.6,4.3,7.3,7.5c-34.2,0.3-68.4-0.2-102.5,0.2c-3.7-0.2-7.3-0.2-11-0.3l0.7-0.2c2.8-0.7,5.7-0.8,8.5-0.9
		c-3-0.4-6.6,0.8-9-1.3c-27.6-27.5-55-55.1-82.6-82.5c-2.7-2.6-5.1-5.9-8.7-7.2c-2.2-2.2-4.4-4.4-6.6-6.6L317.3,1421.9z"/>
	<path class="st147" d="M1372.4,1428.7c2-3.5,4.8-8,9.5-7.4c30.8-0.1,61.6,0,92.3,0c5.1,0,10.2-0.3,15.2,0.5
		c-0.1,0.4-0.3,1.2-0.4,1.7c-1.3-0.6-2.6-0.9-3.9-0.8c-33.3,0-66.6,0.1-99.9,0c-2.4,0.1-5.1-0.5-7,1.1
		C1376.3,1425.5,1374.4,1427.2,1372.4,1428.7z"/>
	<path class="st41" d="M1489.4,1421.8l0.5,0c5.1,1.2,10.5,0.2,15.7,0.5c39,0.1,78.1-0.2,117.1,0.2c-2.9,3.6-6.6,6.4-9.9,9.6
		c-28.6,26.1-57.2,52.2-85.8,78.3c-2.7,2.3-5.2,4.9-8.1,7c-2.4,1.5-5,2.8-7.9,2.7c-13,0.2-26,0.4-39,0c-7.3,1-14.5-0.9-21.8,0
		c-8,0.6-15.9,0.1-23.9-0.1c-5.8,0.9-11.7-0.7-17.5,0c-5.5,0.7-11.1-0.2-16.6,0.2c5.1-6.1,11.2-11.4,16.7-17.1
		c16.8-16.9,33.7-33.7,50.5-50.5c9.9-9.6,19.3-19.7,29.4-29.1C1489.1,1423.1,1489.3,1422.2,1489.4,1421.8z"/>
	<path class="st68" d="M184.6,1422.4c44.4-0.2,88.8,0,133.2-0.1c2.2,2.2,4.4,4.4,6.6,6.6c3,4.1,6.8,7.5,10.4,11.1
		c0.1,0.7,0.2,2.1,0.3,2.8c0.7,0.1,2.2,0.3,2.9,0.3c1.7,1.9,3.5,3.8,5.5,5.5c0.1,0.7,0.3,2.2,0.3,2.9c0.7,0.1,2.1,0.2,2.8,0.3
		c1.7,2,3.6,3.8,5.5,5.5c0.1,0.7,0.2,2.2,0.3,2.9c0.7,0.1,2.1,0.2,2.8,0.3c1.1,1.3,2.2,2.6,3.5,3.8c0.1,0.1,0.3,0.3,0.4,0.4
		c0.4,0.3,1.2,1,1.7,1.4c0.1,0.7,0.2,2.1,0.3,2.8c0.7,0.1,2.1,0.2,2.9,0.3c1.1,1.3,2.3,2.5,3.5,3.8c0.1,0.1,0.3,0.3,0.4,0.4
		c1.3,1.2,2.7,2.5,3.9,3.9c0.1,0.1,0.4,0.4,0.5,0.6c0.4,0.4,1.2,1.2,1.5,1.6c0.1,0.1,0.4,0.4,0.5,0.5c1.2,1.2,2.5,2.3,3.8,3.5
		c0.1,0.7,0.3,2.1,0.4,2.8c0.7,0.1,2.2,0.2,2.9,0.3c1.1,1.4,2.2,2.7,3.5,4c0.1,0.1,0.2,0.2,0.2,0.2c0.4,0.3,1.3,1,1.8,1.4
		c0.1,0.7,0.3,2.1,0.3,2.8c0.7,0.1,2.1,0.2,2.9,0.3c1.7,2,3.6,3.8,5.5,5.6c0.1,0.7,0.3,2.1,0.4,2.9c0.7,0.1,2.1,0.2,2.8,0.3
		c1.1,1.2,2.2,2.3,3.4,3.4c-0.7,2.6,1.6,4.5,4.1,4.2c0.3,0.3,0.9,0.8,1.2,1.1c1.7,2.6,4.5,4.4,5.4,7.6c-39.2,0.3-78.4,0-117.6,0.2
		c-2.5,0.3-4.7-1-6.6-2.4c-30.8-28-61.5-56.1-92.3-84.2C192.5,1429.8,188.1,1426.6,184.6,1422.4z"/>
	<path class="st148" d="M1378.2,1423.8c2-1.7,4.7-1,7-1.1c33.3,0.1,66.6,0,99.9,0c1.4-0.1,2.7,0.2,3.9,0.8
		c-8.8,1.2-17.8,0.4-26.7,0.6c-21,0-42,0-63.1,0C1392.2,1424,1385.2,1424.4,1378.2,1423.8z"/>
	<path class="st40" d="M1372.4,1428.7c2-1.5,3.9-3.2,5.8-5c7,0.6,14.1,0.2,21.1,0.3c21,0,42,0,63.1,0c8.9-0.2,17.8,0.6,26.7-0.6
		c-10.1,9.4-19.6,19.5-29.4,29.1c-16.8,16.9-33.7,33.7-50.5,50.5c-5.5,5.8-11.6,11-16.7,17.1c5.5-0.4,11.1,0.4,16.6-0.2
		c5.8-0.7,11.6,0.9,17.5,0c7.9,0.1,15.9,0.7,23.9,0.1c7.2-0.9,14.5,1,21.8,0c13,0.4,26,0.2,39,0c2.9,0.1,5.5-1.2,7.9-2.7
		c-1,0.8-2,1.7-3,2.5c-1.7,0.2-3.3,0.5-4.9,0.9c-6.1-0.8-12.3,0.6-18.4-0.2c-6.2,0.2-12.4,0.5-18.5-0.3c-4.4,0.3-8.8,0.9-13.2,0.3
		c-6.8-1.2-13.7,0.7-20.5,0.2c-5.4,0.6-10.8-1.1-16.2-0.2c-4.8,0.8-9.5-1-14.2-0.3c-6.4,1.2-12.9-0.5-19.3,0.7
		c-37.4,0-74.8,0.2-112.2-0.1c3-5,8.1-8.2,12-12.5c9-8.9,18-17.9,27.2-26.5c2.9-2.6,5.7-5.2,8.3-8.1c10-9.6,19.7-19.3,29.6-29
		c5.6-4.8,10.9-9.9,15.8-15.4C1371.8,1429.3,1372.2,1428.9,1372.4,1428.7z"/>
	<path class="st149" d="M324.4,1428.8c3.7,1.3,6,4.6,8.7,7.2c27.6,27.5,55,55.1,82.6,82.5c2.5,2.1,6.1,0.9,9,1.3
		c-2.9,0.1-5.7,0.2-8.5,0.9c-1.2-0.8-2.2-1.8-3.1-2.9c-1.5-2.2-3.5-3.9-5.6-5.3c-0.3-0.3-0.9-0.8-1.2-1.1c-0.9-1.8-2.3-3.3-4.1-4.2
		c-1.2-1.1-2.4-2.2-3.4-3.4c-0.7-1.4-1.7-2.5-3.1-3.2c-2-1.7-3.8-3.6-5.5-5.6c-0.7-1.4-1.8-2.5-3.2-3.2c-0.4-0.3-1.3-1-1.8-1.4
		c-0.1-0.1-0.2-0.2-0.2-0.2c-1.2-1.3-2.4-2.6-3.5-4c-0.7-1.4-1.9-2.4-3.2-3.1c-1.3-1.1-2.5-2.3-3.8-3.5c-0.1-0.1-0.4-0.4-0.5-0.5
		c-0.4-0.4-1.2-1.2-1.5-1.6c-0.1-0.1-0.4-0.4-0.5-0.6c-1.3-1.4-2.6-2.7-3.9-3.9c-0.1-0.1-0.3-0.3-0.4-0.4c-1.2-1.2-2.4-2.5-3.5-3.8
		c-0.7-1.4-1.8-2.5-3.2-3.1c-0.4-0.3-1.2-1-1.7-1.4c-0.1-0.1-0.3-0.3-0.4-0.4c-1.2-1.3-2.4-2.5-3.5-3.8c-0.7-1.4-1.8-2.5-3.1-3.2
		c-2-1.7-3.8-3.6-5.5-5.5c-0.7-1.4-1.8-2.5-3.2-3.2c-2-1.7-3.8-3.5-5.5-5.5c-0.7-1.4-1.8-2.5-3.2-3.2
		C331.2,1436.3,327.4,1432.9,324.4,1428.8z"/>
	<path class="st150" d="M1363.3,1435.6c2.5-2.3,4.5-5.9,8.3-6.1c-4.9,5.5-10.2,10.6-15.8,15.4
		C1356.7,1440.7,1360.6,1438.5,1363.3,1435.6z"/>
	<path class="st33" d="M334.8,1439.9c1.4,0.7,2.5,1.7,3.2,3.2c-0.7-0.1-2.2-0.2-2.9-0.3C335.1,1442,334.9,1440.6,334.8,1439.9z"/>
	<path class="st33" d="M343.5,1448.5c1.4,0.7,2.5,1.8,3.2,3.2c-0.7-0.1-2.1-0.2-2.8-0.3C343.8,1450.7,343.6,1449.3,343.5,1448.5z"/>
	<path class="st33" d="M352.2,1457.2c1.4,0.7,2.4,1.8,3.1,3.2c-0.7-0.1-2.1-0.2-2.8-0.3C352.5,1459.4,352.3,1458,352.2,1457.2z"/>
	<path class="st151" d="M358.8,1464.2c0.1,0.1,0.3,0.3,0.4,0.4C359.2,1464.5,358.9,1464.3,358.8,1464.2z"/>
	<path class="st33" d="M360.9,1466c1.4,0.6,2.5,1.7,3.2,3.1c-0.7-0.1-2.1-0.2-2.9-0.3C361.1,1468.1,361,1466.7,360.9,1466z"/>
	<path class="st152" d="M367.6,1472.9c0.1,0.1,0.3,0.3,0.4,0.4C367.9,1473.2,367.7,1473,367.6,1472.9z"/>
	<path class="st153" d="M1317.8,1482c0.5-4,4.2-7.7,8.3-8.1C1323.5,1476.8,1320.7,1479.4,1317.8,1482z"/>
	<path class="st154" d="M371.9,1477.2c0.1,0.1,0.4,0.4,0.5,0.6C372.3,1477.6,372,1477.3,371.9,1477.2z"/>
	<path class="st155" d="M374,1479.3c0.1,0.1,0.4,0.4,0.5,0.5C374.4,1479.7,374.1,1479.5,374,1479.3z"/>
	<path class="st33" d="M378.3,1483.3c1.4,0.7,2.5,1.7,3.2,3.1c-0.7-0.1-2.2-0.2-2.9-0.3C378.6,1485.5,378.4,1484,378.3,1483.3z"/>
	<path class="st156" d="M385,1490.5c0.1,0.1,0.2,0.2,0.2,0.2C385.1,1490.6,385,1490.5,385,1490.5z"/>
	<path class="st33" d="M387,1492c1.4,0.6,2.5,1.7,3.2,3.2c-0.7-0.1-2.1-0.2-2.9-0.3C387.2,1494.1,387,1492.7,387,1492z"/>
	<path class="st33" d="M395.7,1500.7c1.4,0.7,2.5,1.7,3.1,3.2c-0.7-0.1-2.1-0.2-2.8-0.3C395.9,1502.9,395.8,1501.5,395.7,1500.7z"/>
	<path class="st33" d="M402.3,1507.3c1.8,0.9,3.2,2.3,4.1,4.2C403.9,1511.9,401.6,1509.9,402.3,1507.3z"/>
	<path class="st17" d="M407.6,1512.6c2.1,1.5,4.1,3.2,5.6,5.3c0,0.6,0,1.8,0,2.4c-40.5,0.4-80.9,0-121.4,0.2c-1-0.9-2-1.8-3-2.7
		c1.9,1.4,4.1,2.7,6.6,2.4c39.2-0.2,78.4,0.2,117.6-0.2C412.1,1517,409.3,1515.2,407.6,1512.6z"/>
	<path class="st157" d="M413.1,1517.9c0.9,1.1,1.8,2.1,3.1,2.9l-0.7,0.2c-1.6,0.6-3.3,0.8-5,0.8c-39.6-0.1-79.2,0.1-118.8-0.1
		l-0.1-1.1c40.5-0.2,80.9,0.2,121.4-0.2C413.1,1519.7,413.1,1518.5,413.1,1517.9z"/>
	<path class="st26" d="M657.3,1553.7c161,0,322,0,483.1,0c-24.5,24.5-49,49-73.5,73.5c-76.4,1.9-152.9,3.6-229.4,3.8
		c-26.9-0.1-53.9,0.2-80.8-1.5c-3.2-0.5-6.8-0.4-9.7-1.9c-3.9-5.2-9-9.2-13.9-13.4C708.4,1593.3,682.6,1573.8,657.3,1553.7z"/>
</g>
</svg>
